<?xml version="1.0" encoding="UTF-8" standalone="yes"?>
<!-- Created with sK1/UniConvertor (http://sk1project.org/) -->
<svg xmlns="http://www.w3.org/2000/svg" xmlns:xlink="http://www.w3.org/1999/xlink"
  width="595.276pt" height="841.89pt" viewBox="0 0 595.276 841.89"
  fill-rule="evenodd">
<g>
<g>
<path style="stroke:none; fill:none" d="M 284.975 448.581L 514.863 448.581L 514.863 625.202L 284.975 625.202L 284.975 448.581L 284.975 448.581z"/>
<path style="stroke:none; fill:#c43131" d="M 301.125 453.626L 300.111 453.672L 299.121 453.788L 298.176 454.018L 297.254 454.317L 296.356 454.686L 295.526 455.147L 294.72 455.654L 293.96 456.23L 293.269 456.875L 292.624 457.566L 292.047 458.326L 291.54 459.109L 291.08 459.962L 290.711 460.86L 290.412 461.782L 290.204 462.727L 290.066 463.717L 290.02 464.732L 290.02 464.732L 290.02 464.754L 290.02 464.801L 290.02 464.892L 290.02 465.031L 290.02 465.215L 290.02 465.423L 290.02 465.653L 290.02 465.953L 290.02 466.252L 290.02 466.621L 290.02 466.989L 290.02 467.427L 290.02 467.864L 290.02 468.348L 290.02 468.879L 290.02 469.431L 290.02 470.007L 290.02 470.606L 290.02 471.252L 290.02 471.92L 290.02 472.611L 290.02 473.348L 290.02 474.108L 290.02 474.892L 290.02 475.698L 290.02 476.527L 290.02 477.38L 290.02 478.278L 290.02 479.177L 290.02 480.122L 290.02 481.066L 290.02 482.057L 290.02 483.047L 290.02 484.085L 290.02 485.122L 290.02 486.204L 290.02 487.287L 290.02 488.393L 290.02 489.522L 290.02 490.65L 290.02 491.826L 290.02 493.001L 290.02 494.199L 290.02 495.42L 290.02 496.641L 290.02 497.885L 290.02 499.152L 290.02 500.42L 290.02 501.71L 290.02 503.023L 290.02 504.336L 290.02 505.673L 290.02 507.009L 290.02 508.345L 290.02 509.705L 290.02 511.087L 290.02 512.469L 290.02 513.852L 290.02 515.257L 290.02 516.663L 290.02 518.068L 290.02 519.496L 290.02 520.925L 290.02 522.353L 290.02 523.805L 290.02 525.233L 290.02 526.685L 290.02 528.136L 290.02 529.588L 290.02 531.062L 290.02 532.514L 290.02 533.988L 290.02 535.44L 290.02 536.891L 290.02 538.343L 290.02 539.794L 290.02 541.269L 290.02 542.72L 290.02 544.194L 290.02 545.646L 290.02 547.098L 290.02 548.549L 290.02 549.978L 290.02 551.429L 290.02 552.857L 290.02 554.286L 290.02 555.714L 290.02 557.12L 290.02 558.526L 290.02 559.931L 290.02 561.313L 290.02 562.695L 290.02 564.078L 290.02 565.437L 290.02 566.774L 290.02 568.11L 290.02 569.446L 290.02 570.759L 290.02 572.073L 290.02 573.363L 290.02 574.63L 290.02 575.897L 290.02 577.141L 290.02 578.362L 290.02 579.584L 290.02 580.781L 290.02 581.957L 290.02 583.132L 290.02 584.261L 290.02 585.389L 290.02 586.496L 290.02 587.601L 290.02 588.661L 290.02 589.698L 290.02 590.735L 290.02 591.726L 290.02 592.716L 290.02 593.661L 290.02 594.605L 290.02 595.504L 290.02 596.402L 290.02 597.255L 290.02 598.084L 290.02 598.891L 290.02 599.674L 290.02 600.435L 290.02 601.171L 290.02 601.863L 290.02 602.531L 290.02 603.176L 290.02 603.775L 290.02 604.351L 290.02 604.904L 290.02 605.434L 290.02 605.918L 290.02 606.356L 290.02 606.794L 290.02 607.162L 290.02 607.53L 290.02 607.83L 290.02 608.129L 290.02 608.36L 290.02 608.568L 290.02 608.752L 290.02 608.89L 290.02 608.982L 290.02 609.028L 290.02 609.051L 290.02 609.051L 290.066 610.065L 290.204 611.056L 290.412 612L 290.711 612.922L 291.08 613.82L 291.54 614.673L 292.047 615.456L 292.624 616.217L 293.269 616.907L 293.96 617.553L 294.72 618.128L 295.526 618.635L 296.356 619.096L 297.254 619.465L 298.176 619.765L 299.121 619.995L 300.111 620.11L 301.125 620.156L 301.125 620.156L 301.148 620.156L 301.171 620.156L 301.263 620.156L 301.355 620.156L 301.471 620.156L 301.631 620.156L 301.816 620.156L 302.023 620.156L 302.254 620.156L 302.507 620.156L 302.807 620.156L 303.106 620.156L 303.452 620.156L 303.82 620.156L 304.212 620.156L 304.604 620.156L 305.042 620.156L 305.502 620.156L 305.986 620.156L 306.493 620.156L 307.022 620.156L 307.576 620.156L 308.153 620.156L 308.751 620.156L 309.374 620.156L 310.018 620.156L 310.686 620.156L 311.377 620.156L 312.069 620.156L 312.806 620.156L 313.543 620.156L 314.303 620.156L 315.087 620.156L 315.893 620.156L 316.723 620.156L 317.575 620.156L 318.428 620.156L 319.303 620.156L 320.202 620.156L 321.123 620.156L 322.045 620.156L 323.013 620.156L 323.957 620.156L 324.948 620.156L 325.962 620.156L 326.976 620.156L 327.989 620.156L 329.049 620.156L 330.108 620.156L 331.192 620.156L 332.274 620.156L 333.381 620.156L 334.509 620.156L 335.638 620.156L 336.79 620.156L 337.942 620.156L 339.117 620.156L 340.293 620.156L 341.49 620.156L 342.711 620.156L 343.933 620.156L 345.154 620.156L 346.421 620.156L 347.665 620.156L 348.932 620.156L 350.2 620.156L 351.489 620.156L 352.78 620.156L 354.093 620.156L 355.406 620.156L 356.743 620.156L 358.078 620.156L 359.415 620.156L 360.751 620.156L 362.11 620.156L 363.47 620.156L 364.853 620.156L 366.235 620.156L 367.618 620.156L 369 620.156L 370.405 620.156L 371.81 620.156L 373.215 620.156L 374.621 620.156L 376.05 620.156L 377.478 620.156L 378.907 620.156L 380.335 620.156L 381.763 620.156L 383.215 620.156L 384.644 620.156L 386.095 620.156L 387.546 620.156L 388.998 620.156L 390.449 620.156L 391.901 620.156L 393.352 620.156L 394.827 620.156L 396.278 620.156L 397.73 620.156L 399.204 620.156L 400.632 620.156L 402.107 620.156L 403.559 620.156L 405.011 620.156L 406.462 620.156L 407.936 620.156L 409.388 620.156L 410.839 620.156L 412.291 620.156L 413.742 620.156L 415.194 620.156L 416.622 620.156L 418.074 620.156L 419.502 620.156L 420.931 620.156L 422.359 620.156L 423.788 620.156L 425.216 620.156L 426.621 620.156L 428.027 620.156L 429.432 620.156L 430.837 620.156L 432.22 620.156L 433.602 620.156L 434.985 620.156L 436.367 620.156L 437.727 620.156L 439.085 620.156L 440.422 620.156L 441.759 620.156L 443.095 620.156L 444.432 620.156L 445.744 620.156L 447.058 620.156L 448.348 620.156L 449.638 620.156L 450.905 620.156L 452.172 620.156L 453.416 620.156L 454.661 620.156L 455.905 620.156L 457.125 620.156L 458.347 620.156L 459.545 620.156L 460.72 620.156L 461.895 620.156L 463.047 620.156L 464.199 620.156L 465.328 620.156L 466.457 620.156L 467.562 620.156L 468.646 620.156L 469.728 620.156L 470.789 620.156L 471.848 620.156L 472.862 620.156L 473.875 620.156L 474.889 620.156L 475.857 620.156L 476.825 620.156L 477.793 620.156L 478.714 620.156L 479.636 620.156L 480.534 620.156L 481.41 620.156L 482.262 620.156L 483.114 620.156L 483.943 620.156L 484.75 620.156L 485.534 620.156L 486.294 620.156L 487.031 620.156L 487.769 620.156L 488.46 620.156L 489.151 620.156L 489.819 620.156L 490.464 620.156L 491.086 620.156L 491.685 620.156L 492.261 620.156L 492.814 620.156L 493.344 620.156L 493.851 620.156L 494.335 620.156L 494.796 620.156L 495.233 620.156L 495.625 620.156L 496.017 620.156L 496.385 620.156L 496.731 620.156L 497.03 620.156L 497.33 620.156L 497.583 620.156L 497.814 620.156L 498.021 620.156L 498.206 620.156L 498.367 620.156L 498.481 620.156L 498.574 620.156L 498.644 620.156L 498.69 620.156L 498.713 620.156L 498.713 620.156L 499.726 620.11L 500.716 619.995L 501.661 619.765L 502.583 619.465L 503.481 619.096L 504.31 618.635L 505.118 618.128L 505.854 617.553L 506.569 616.907L 507.214 616.217L 507.79 615.456L 508.297 614.673L 508.758 613.82L 509.126 612.922L 509.425 612L 509.633 611.056L 509.772 610.065L 509.817 609.051L 509.817 609.051L 509.817 609.028L 509.817 608.982L 509.817 608.89L 509.817 608.752L 509.817 608.568L 509.817 608.36L 509.817 608.129L 509.817 607.83L 509.817 607.53L 509.817 607.162L 509.817 606.794L 509.817 606.356L 509.817 605.918L 509.817 605.434L 509.817 604.904L 509.817 604.351L 509.817 603.775L 509.817 603.176L 509.817 602.531L 509.817 601.863L 509.817 601.171L 509.817 600.435L 509.817 599.674L 509.817 598.891L 509.817 598.084L 509.817 597.255L 509.817 596.402L 509.817 595.504L 509.817 594.605L 509.817 593.661L 509.817 592.716L 509.817 591.726L 509.817 590.735L 509.817 589.698L 509.817 588.661L 509.817 587.601L 509.817 586.496L 509.817 585.389L 509.817 584.261L 509.817 583.132L 509.817 581.957L 509.817 580.781L 509.817 579.584L 509.817 578.362L 509.817 577.141L 509.817 575.897L 509.817 574.63L 509.817 573.363L 509.817 572.073L 509.817 570.759L 509.817 569.446L 509.817 568.11L 509.817 566.774L 509.817 565.437L 509.817 564.078L 509.817 562.695L 509.817 561.313L 509.817 559.931L 509.817 558.526L 509.817 557.12L 509.817 555.714L 509.817 554.286L 509.817 552.857L 509.817 551.429L 509.817 549.978L 509.817 548.549L 509.817 547.098L 509.817 545.646L 509.817 544.194L 509.817 542.72L 509.817 541.269L 509.817 539.794L 509.817 538.343L 509.817 536.891L 509.817 535.44L 509.817 533.988L 509.817 532.514L 509.817 531.062L 509.817 529.588L 509.817 528.136L 509.817 526.685L 509.817 525.233L 509.817 523.805L 509.817 522.353L 509.817 520.925L 509.817 519.496L 509.817 518.068L 509.817 516.663L 509.817 515.257L 509.817 513.852L 509.817 512.469L 509.817 511.087L 509.817 509.705L 509.817 508.345L 509.817 507.009L 509.817 505.673L 509.817 504.336L 509.817 503.023L 509.817 501.71L 509.817 500.42L 509.817 499.152L 509.817 497.885L 509.817 496.641L 509.817 495.42L 509.817 494.199L 509.817 493.001L 509.817 491.826L 509.817 490.65L 509.817 489.522L 509.817 488.393L 509.817 487.287L 509.817 486.204L 509.817 485.122L 509.817 484.085L 509.817 483.047L 509.817 482.057L 509.817 481.066L 509.817 480.122L 509.817 479.177L 509.817 478.278L 509.817 477.38L 509.817 476.527L 509.817 475.698L 509.817 474.892L 509.817 474.108L 509.817 473.348L 509.817 472.611L 509.817 471.92L 509.817 471.252L 509.817 470.606L 509.817 470.007L 509.817 469.431L 509.817 468.879L 509.817 468.348L 509.817 467.864L 509.817 467.427L 509.817 466.989L 509.817 466.621L 509.817 466.252L 509.817 465.953L 509.817 465.653L 509.817 465.423L 509.817 465.215L 509.817 465.031L 509.817 464.892L 509.817 464.801L 509.817 464.754L 509.817 464.732L 509.817 464.732L 509.772 463.717L 509.633 462.727L 509.425 461.782L 509.126 460.86L 508.758 459.962L 508.297 459.109L 507.79 458.326L 507.214 457.566L 506.569 456.875L 505.854 456.23L 505.118 455.654L 504.31 455.147L 503.481 454.686L 502.583 454.317L 501.661 454.018L 500.716 453.788L 499.726 453.672L 498.713 453.626L 498.713 453.626L 498.69 453.626L 498.644 453.626L 498.574 453.626L 498.481 453.626L 498.367 453.626L 498.206 453.626L 498.021 453.626L 497.814 453.626L 497.583 453.626L 497.33 453.626L 497.03 453.626L 496.731 453.626L 496.385 453.626L 496.017 453.626L 495.625 453.626L 495.233 453.626L 494.796 453.626L 494.335 453.626L 493.851 453.626L 493.344 453.626L 492.814 453.626L 492.261 453.626L 491.685 453.626L 491.086 453.626L 490.464 453.626L 489.819 453.626L 489.151 453.626L 488.46 453.626L 487.769 453.626L 487.031 453.626L 486.294 453.626L 485.534 453.626L 484.75 453.626L 483.943 453.626L 483.114 453.626L 482.262 453.626L 481.41 453.626L 480.534 453.626L 479.636 453.626L 478.714 453.626L 477.793 453.626L 476.825 453.626L 475.857 453.626L 474.889 453.626L 473.875 453.626L 472.862 453.626L 471.848 453.626L 470.789 453.626L 469.728 453.626L 468.646 453.626L 467.562 453.626L 466.457 453.626L 465.328 453.626L 464.199 453.626L 463.047 453.626L 461.895 453.626L 460.72 453.626L 459.545 453.626L 458.347 453.626L 457.125 453.626L 455.905 453.626L 454.661 453.626L 453.416 453.626L 452.172 453.626L 450.905 453.626L 449.638 453.626L 448.348 453.626L 447.058 453.626L 445.744 453.626L 444.432 453.626L 443.095 453.626L 441.759 453.626L 440.422 453.626L 439.085 453.626L 437.727 453.626L 436.367 453.626L 434.985 453.626L 433.602 453.626L 432.22 453.626L 430.837 453.626L 429.432 453.626L 428.027 453.626L 426.621 453.626L 425.216 453.626L 423.788 453.626L 422.359 453.626L 420.931 453.626L 419.502 453.626L 418.074 453.626L 416.622 453.626L 415.194 453.626L 413.742 453.626L 412.291 453.626L 410.839 453.626L 409.388 453.626L 407.936 453.626L 406.462 453.626L 405.011 453.626L 403.559 453.626L 402.107 453.626L 400.632 453.626L 399.204 453.626L 397.73 453.626L 396.278 453.626L 394.827 453.626L 393.352 453.626L 391.901 453.626L 390.449 453.626L 388.998 453.626L 387.546 453.626L 386.095 453.626L 384.644 453.626L 383.215 453.626L 381.763 453.626L 380.335 453.626L 378.907 453.626L 377.478 453.626L 376.05 453.626L 374.621 453.626L 373.215 453.626L 371.81 453.626L 370.405 453.626L 369 453.626L 367.618 453.626L 366.235 453.626L 364.853 453.626L 363.47 453.626L 362.11 453.626L 360.751 453.626L 359.415 453.626L 358.078 453.626L 356.743 453.626L 355.406 453.626L 354.093 453.626L 352.78 453.626L 351.489 453.626L 350.2 453.626L 348.932 453.626L 347.665 453.626L 346.421 453.626L 345.154 453.626L 343.933 453.626L 342.711 453.626L 341.49 453.626L 340.293 453.626L 339.117 453.626L 337.942 453.626L 336.79 453.626L 335.638 453.626L 334.509 453.626L 333.381 453.626L 332.274 453.626L 331.192 453.626L 330.108 453.626L 329.049 453.626L 327.989 453.626L 326.976 453.626L 325.962 453.626L 324.948 453.626L 323.957 453.626L 323.013 453.626L 322.045 453.626L 321.123 453.626L 320.202 453.626L 319.303 453.626L 318.428 453.626L 317.575 453.626L 316.723 453.626L 315.893 453.626L 315.087 453.626L 314.303 453.626L 313.543 453.626L 312.806 453.626L 312.069 453.626L 311.377 453.626L 310.686 453.626L 310.018 453.626L 309.374 453.626L 308.751 453.626L 308.153 453.626L 307.576 453.626L 307.022 453.626L 306.493 453.626L 305.986 453.626L 305.502 453.626L 305.042 453.626L 304.604 453.626L 304.212 453.626L 303.82 453.626L 303.452 453.626L 303.106 453.626L 302.807 453.626L 302.507 453.626L 302.254 453.626L 302.023 453.626L 301.816 453.626L 301.631 453.626L 301.471 453.626L 301.355 453.626L 301.263 453.626L 301.171 453.626L 301.148 453.626L 301.125 453.626L 301.125 453.626L 301.125 453.626z"/>
<path style="stroke:none; fill:#f7b31e" d="M 382.961 528.781L 383.077 527.975L 383.191 527.169L 383.307 526.339L 383.445 525.51L 383.583 524.657L 383.722 523.782L 383.86 522.906L 384.021 522.031L 384.183 521.132L 384.344 520.211L 384.505 519.312L 384.69 518.391L 384.851 517.446L 385.058 516.501L 385.242 515.556L 385.45 514.611L 385.657 513.644L 385.864 512.677L 386.072 511.709L 386.302 510.741L 386.533 509.75L 386.764 508.783L 387.017 507.793L 387.27 506.824L 387.523 505.834L 387.776 504.843L 388.053 503.853L 388.33 502.862L 388.606 501.894L 388.906 500.904L 389.182 499.936L 389.504 498.945L 389.805 497.977L 390.127 497.009L 390.426 496.042L 390.772 495.098L 391.094 494.13L 391.44 493.185L 391.785 492.24L 392.131 491.319L 392.5 490.397L 392.868 489.476L 393.237 488.577L 393.628 487.679L 394.021 486.803L 394.412 485.928L 394.804 485.052L 395.219 484.223L 395.633 483.37L 396.048 482.564L 396.486 481.734L 396.923 480.951L 397.361 480.168L 397.798 479.407L 398.26 478.671L 398.72 477.933L 399.204 477.219L 399.665 476.527L 400.126 475.859L 400.632 475.191L 401.116 474.569L 401.624 473.947L 402.153 473.348L 402.66 472.772L 403.19 472.219L 403.72 471.69L 404.273 471.205L 404.826 470.722L 405.379 470.261L 405.932 469.823L 406.508 469.431L 407.085 469.04L 407.683 468.694L 408.259 468.372L 408.858 468.072L 409.48 467.818L 410.079 467.565L 410.702 467.358L 411.346 467.173L 411.969 467.035L 412.613 466.92L 413.281 466.828L 413.927 466.782L 414.595 466.782L 414.595 466.782L 415.009 466.782L 415.401 466.805L 415.816 466.851L 416.208 466.897L 416.599 466.966L 417.014 467.058L 417.406 467.173L 417.82 467.289L 418.235 467.427L 418.627 467.565L 419.042 467.727L 419.433 467.911L 419.848 468.095L 420.262 468.302L 420.654 468.532L 421.069 468.763L 421.483 469.017L 421.898 469.293L 422.29 469.569L 422.705 469.869L 423.12 470.169L 423.511 470.491L 423.926 470.837L 424.34 471.183L 424.732 471.551L 425.147 471.92L 425.562 472.312L 425.977 472.726L 426.368 473.141L 426.783 473.556L 427.197 474.016L 427.589 474.454L 428.004 474.938L 428.396 475.399L 428.81 475.906L 429.225 476.412L 429.617 476.92L 430.031 477.449L 430.423 477.979L 430.815 478.532L 431.229 479.108L 431.622 479.684L 432.036 480.26L 432.428 480.859L 432.819 481.481L 433.211 482.104L 433.602 482.725L 434.017 483.37L 434.409 484.015L 434.801 484.684L 435.192 485.352L 435.584 486.043L 435.976 486.734L 436.344 487.425L 436.735 488.163L 437.128 488.877L 437.519 489.614L 437.888 490.351L 438.279 491.112L 438.648 491.872L 439.04 492.632L 439.409 493.416L 439.777 494.222L 440.146 495.005L 440.514 495.812L 440.883 496.641L 441.252 497.47L 441.621 498.3L 441.989 499.129L 442.357 499.982L 442.727 500.858L 443.072 501.71L 443.44 502.585L 443.786 503.461L 444.131 504.359L 444.477 505.258L 444.846 506.156L 445.191 507.078L 445.514 508L 445.86 508.921L 446.205 509.866L 446.551 510.811L 446.874 511.755L 447.219 512.7L 447.541 513.667L 447.864 514.635L 448.186 515.603L 448.509 516.593L 448.832 517.561L 449.154 518.574L 449.454 519.566L 449.776 520.556L 450.076 521.57L 450.375 522.584L 450.675 523.62L 450.975 524.634L 451.274 525.671L 451.573 526.708L 451.873 527.745L 452.149 528.781L 452.426 529.841L 452.725 530.901L 453.001 531.961L 453.278 533.021L 453.532 534.08L 453.809 535.163L 454.085 536.223L 454.338 537.283L 454.591 538.366L 454.845 539.472L 455.098 540.554L 455.352 541.637L 455.582 542.743L 455.835 543.849L 456.066 544.955L 456.296 546.061L 456.527 547.167L 456.757 548.273L 456.988 549.402L 457.195 550.508L 457.402 551.636L 457.609 552.766L 457.817 553.871L 458.024 555L 458.232 556.129L 458.416 557.258L 458.6 558.387L 458.785 559.539L 458.969 560.669L 459.153 561.797L 459.315 562.949L 459.499 564.078L 459.66 565.23L 459.822 566.358L 459.96 567.511L 460.121 568.639L 460.259 569.792L 460.397 570.921L 460.536 572.073L 460.674 573.224L 460.812 574.354L 460.927 575.506L 461.043 576.657L 461.158 577.787L 461.272 578.938L 461.365 580.091L 461.457 581.219L 461.549 582.371L 461.642 583.5L 461.733 584.652L 461.803 585.781L 461.872 586.91L 461.941 588.062L 462.01 589.191L 462.08 590.32L 462.125 591.449L 462.172 592.578L 462.217 593.707L 462.24 594.836L 462.264 595.964L 462.31 597.071L 462.31 598.2L 462.333 599.328L 462.333 600.435L 462.356 601.54L 462.356 601.54L 462.172 601.54L 461.71 601.54L 460.997 601.54L 460.029 601.54L 458.877 601.54L 457.563 601.54L 456.135 601.54L 454.591 601.54L 453.024 601.54L 451.435 601.54L 449.845 601.54L 448.325 601.54L 446.874 601.54L 445.56 601.54L 444.408 601.54L 443.463 601.54L 442.727 601.54L 442.265 601.54L 442.104 601.54L 442.104 601.54L 442.104 600.158L 442.081 598.752L 442.081 597.37L 442.058 595.987L 442.035 594.605L 442.012 593.223L 441.989 591.863L 441.943 590.481L 441.897 589.099L 441.85 587.739L 441.805 586.38L 441.759 585.021L 441.69 583.662L 441.644 582.302L 441.574 580.943L 441.505 579.607L 441.413 578.271L 441.344 576.934L 441.252 575.598L 441.183 574.261L 441.09 572.925L 440.975 571.612L 440.883 570.299L 440.791 568.985L 440.676 567.672L 440.56 566.358L 440.445 565.068L 440.33 563.778L 440.215 562.488L 440.077 561.198L 439.961 559.931L 439.823 558.664L 439.685 557.397L 439.546 556.129L 439.409 554.885L 439.247 553.641L 439.108 552.397L 438.948 551.152L 438.786 549.932L 438.625 548.71L 438.464 547.489L 438.303 546.292L 438.141 545.093L 437.957 543.895L 437.795 542.697L 437.612 541.522L 437.427 540.348L 437.242 539.195L 437.059 538.02L 436.874 536.891L 436.69 535.762L 436.482 534.633L 436.298 533.504L 436.091 532.376L 435.906 531.27L 435.699 530.164L 435.492 529.081L 435.285 527.998L 435.077 526.915L 434.847 525.855L 434.639 524.796L 434.432 523.758L 434.201 522.722L 433.994 521.685L 433.764 520.671L 433.533 519.658L 433.303 518.667L 433.072 517.676L 432.842 516.686L 432.612 515.718L 432.381 514.75L 432.151 513.806L 431.897 512.861L 431.667 511.939L 431.436 511.018L 431.183 510.119L 430.93 509.221L 430.7 508.322L 430.446 507.47L 430.192 506.594L 429.939 505.742L 429.709 504.912L 429.455 504.083L 429.202 503.254L 428.949 502.447L 428.695 501.664L 428.441 500.88L 428.165 500.12L 427.911 499.36L 427.658 498.622L 427.405 497.885L 427.128 497.171L 426.875 496.457L 426.621 495.766L 426.345 495.075L 426.091 494.429L 425.838 493.761L 425.562 493.116L 425.308 492.494L 425.032 491.895L 424.778 491.296L 424.502 490.697L 424.248 490.121L 423.972 489.568L 423.696 489.038L 423.442 488.508L 423.166 487.978L 422.912 487.494L 422.635 487.01L 422.382 486.527L 422.105 486.066L 421.853 485.629L 421.576 485.213L 421.323 484.799L 421.046 484.407L 420.793 484.015L 420.516 483.67L 420.262 483.324L 419.986 482.979L 419.732 482.656L 419.457 482.357L 419.203 482.08L 418.949 481.804L 418.673 481.55L 418.419 481.319L 418.166 481.112L 417.913 480.905L 417.636 480.721L 417.382 480.56L 417.129 480.398L 416.875 480.283L 416.622 480.145L 416.369 480.053L 416.115 479.983L 415.862 479.915L 415.632 479.868L 415.378 479.845L 415.125 479.822L 415.125 479.822L 414.848 479.845L 414.595 479.868L 414.318 479.891L 414.042 479.938L 413.789 480.006L 413.512 480.076L 413.235 480.168L 412.982 480.283L 412.705 480.398L 412.452 480.537L 412.176 480.674L 411.922 480.836L 411.646 480.997L 411.392 481.205L 411.116 481.389L 410.862 481.619L 410.609 481.826L 410.355 482.08L 410.079 482.334L 409.826 482.61L 409.572 482.886L 409.319 483.186L 409.065 483.485L 408.812 483.831L 408.558 484.154L 408.305 484.523L 408.051 484.868L 407.821 485.259L 407.567 485.651L 407.315 486.066L 407.085 486.481L 406.831 486.919L 406.6 487.356L 406.347 487.817L 406.117 488.301L 405.863 488.785L 405.632 489.292L 405.402 489.798L 405.172 490.328L 404.941 490.881L 404.711 491.434L 404.48 491.987L 404.25 492.586L 404.02 493.185L 403.789 493.784L 403.582 494.406L 403.352 495.051L 403.121 495.696L 402.914 496.365L 402.707 497.032L 402.476 497.724L 402.269 498.438L 402.061 499.152L 401.854 499.89L 401.647 500.627L 401.44 501.387L 401.232 502.148L 401.025 502.931L 400.84 503.737L 400.632 504.544L 400.426 505.373L 400.242 506.203L 400.057 507.055L 399.872 507.93L 399.688 508.806L 399.504 509.682L 399.32 510.604L 399.136 511.525L 398.974 512.446L 398.79 513.391L 398.605 514.336L 398.444 515.326L 398.26 516.294L 398.098 517.308L 397.937 518.298L 397.776 519.335L 397.615 520.372L 397.453 521.409L 397.293 522.468L 397.131 523.551L 396.993 524.634L 396.831 525.74L 396.693 526.869L 396.555 527.998L 396.393 529.127L 396.255 530.279L 396.14 531.454L 396.001 532.629L 395.864 533.827L 395.726 535.025L 395.61 536.246L 395.496 537.467L 395.357 538.712L 395.242 539.955L 395.126 541.223L 395.011 542.513L 394.919 543.826L 394.804 545.116L 394.711 546.452L 394.596 547.789L 394.504 549.126L 394.412 550.485L 394.32 551.867L 394.228 553.25L 394.136 554.655L 394.066 556.084L 393.975 557.489L 393.905 558.94L 393.836 560.392L 393.767 561.866L 393.698 563.341L 393.628 564.816L 393.582 566.336L 393.514 567.833L 393.468 569.377L 393.421 570.921L 393.375 572.464L 393.329 574.031L 393.283 575.62L 393.237 577.211L 393.214 578.823L 393.168 580.436L 393.145 582.071L 393.122 583.708L 393.099 585.366L 393.099 587.025L 393.076 588.707L 393.076 590.412L 393.076 592.117L 393.053 593.822L 393.053 593.822L 392.892 593.822L 392.431 593.822L 391.716 593.822L 390.749 593.822L 389.597 593.822L 388.284 593.822L 386.855 593.822L 385.334 593.822L 383.745 593.822L 382.156 593.822L 380.588 593.822L 379.068 593.822L 377.616 593.822L 376.303 593.822L 375.151 593.822L 374.207 593.822L 373.469 593.822L 373.008 593.822L 372.847 593.822L 372.847 593.822L 372.847 592.117L 372.847 590.412L 372.824 588.707L 372.824 587.025L 372.801 585.366L 372.778 583.708L 372.755 582.071L 372.732 580.436L 372.709 578.823L 372.663 577.211L 372.64 575.62L 372.594 574.031L 372.548 572.464L 372.501 570.921L 372.456 569.377L 372.386 567.833L 372.34 566.336L 372.271 564.816L 372.226 563.341L 372.156 561.866L 372.087 560.392L 372.018 558.94L 371.926 557.489L 371.856 556.084L 371.764 554.655L 371.695 553.25L 371.603 551.867L 371.511 550.485L 371.418 549.126L 371.304 547.789L 371.211 546.452L 371.119 545.116L 371.004 543.826L 370.888 542.513L 370.796 541.223L 370.682 539.955L 370.543 538.712L 370.428 537.467L 370.313 536.246L 370.197 535.025L 370.059 533.827L 369.921 532.629L 369.783 531.454L 369.668 530.279L 369.529 529.127L 369.368 527.998L 369.229 526.869L 369.091 525.74L 368.93 524.634L 368.792 523.551L 368.631 522.468L 368.47 521.409L 368.331 520.372L 368.17 519.335L 367.986 518.298L 367.824 517.308L 367.664 516.294L 367.502 515.326L 367.318 514.336L 367.156 513.391L 366.972 512.446L 366.788 511.525L 366.603 510.604L 366.419 509.705L 366.235 508.806L 366.05 507.93L 365.866 507.055L 365.659 506.203L 365.475 505.373L 365.29 504.544L 365.083 503.737L 364.875 502.931L 364.691 502.148L 364.483 501.387L 364.276 500.627L 364.069 499.89L 363.862 499.152L 363.654 498.438L 363.424 497.724L 363.216 497.032L 363.009 496.365L 362.779 495.696L 362.571 495.051L 362.341 494.406L 362.11 493.784L 361.903 493.185L 361.672 492.586L 361.442 491.987L 361.212 491.434L 360.982 490.881L 360.751 490.328L 360.521 489.798L 360.267 489.292L 360.037 488.785L 359.807 488.301L 359.553 487.817L 359.323 487.356L 359.07 486.919L 358.839 486.481L 358.586 486.066L 358.355 485.651L 358.102 485.259L 357.849 484.868L 357.595 484.523L 357.342 484.154L 357.088 483.831L 356.835 483.509L 356.581 483.186L 356.328 482.886L 356.075 482.61L 355.821 482.334L 355.567 482.08L 355.291 481.826L 355.038 481.619L 354.784 481.389L 354.507 481.205L 354.254 480.997L 353.978 480.836L 353.725 480.674L 353.448 480.537L 353.194 480.398L 352.918 480.283L 352.665 480.168L 352.388 480.076L 352.111 480.006L 351.835 479.938L 351.582 479.891L 351.305 479.868L 351.029 479.845L 350.752 479.822L 350.752 479.822L 350.521 479.845L 350.268 479.868L 350.015 479.915L 349.762 479.983L 349.508 480.053L 349.254 480.145L 349.001 480.283L 348.748 480.398L 348.494 480.56L 348.241 480.721L 347.987 480.905L 347.734 481.112L 347.481 481.319L 347.204 481.55L 346.951 481.804L 346.697 482.08L 346.421 482.357L 346.167 482.656L 345.913 482.979L 345.638 483.301L 345.384 483.67L 345.108 484.015L 344.854 484.407L 344.578 484.799L 344.324 485.213L 344.048 485.629L 343.794 486.066L 343.518 486.527L 343.265 487.01L 342.988 487.494L 342.735 487.978L 342.458 488.508L 342.205 489.038L 341.928 489.568L 341.651 490.121L 341.398 490.697L 341.122 491.296L 340.868 491.895L 340.592 492.494L 340.338 493.116L 340.085 493.761L 339.808 494.429L 339.555 495.098L 339.278 495.766L 339.024 496.457L 338.772 497.171L 338.495 497.885L 338.242 498.622L 337.988 499.36L 337.735 500.12L 337.481 500.88L 337.228 501.664L 336.975 502.447L 336.722 503.254L 336.467 504.083L 336.213 504.912L 335.96 505.742L 335.707 506.594L 335.455 507.47L 335.224 508.345L 334.97 509.221L 334.717 510.119L 334.487 511.018L 334.233 511.939L 334.002 512.861L 333.772 513.806L 333.519 514.75L 333.288 515.718L 333.058 516.686L 332.827 517.676L 332.597 518.667L 332.367 519.658L 332.16 520.671L 331.929 521.685L 331.698 522.722L 331.491 523.758L 331.261 524.796L 331.053 525.855L 330.846 526.938L 330.638 527.998L 330.431 529.081L 330.224 530.187L 330.017 531.27L 329.809 532.399L 329.625 533.504L 329.418 534.633L 329.232 535.762L 329.026 536.891L 328.841 538.044L 328.657 539.195L 328.474 540.348L 328.289 541.522L 328.127 542.697L 327.943 543.895L 327.782 545.093L 327.598 546.292L 327.435 547.489L 327.275 548.71L 327.114 549.932L 326.976 551.152L 326.814 552.397L 326.653 553.641L 326.514 554.885L 326.376 556.129L 326.238 557.397L 326.1 558.664L 325.962 559.931L 325.823 561.221L 325.708 562.488L 325.592 563.778L 325.478 565.068L 325.362 566.382L 325.247 567.672L 325.132 568.985L 325.04 570.299L 324.925 571.612L 324.832 572.925L 324.741 574.261L 324.648 575.598L 324.579 576.934L 324.487 578.271L 324.418 579.607L 324.349 580.966L 324.28 582.302L 324.211 583.662L 324.165 585.021L 324.095 586.38L 324.049 587.739L 324.003 589.122L 323.98 590.481L 323.934 591.863L 323.911 593.223L 323.888 594.605L 323.865 595.987L 323.842 597.37L 323.819 598.752L 323.819 600.158L 323.819 601.54L 323.819 601.54L 323.658 601.54L 323.197 601.54L 322.46 601.54L 321.515 601.54L 320.34 601.54L 319.027 601.54L 317.599 601.54L 316.078 601.54L 314.487 601.54L 312.898 601.54L 311.309 601.54L 309.788 601.54L 308.359 601.54L 307.046 601.54L 305.894 601.54L 304.926 601.54L 304.19 601.54L 303.728 601.54L 303.567 601.54L 303.567 601.54L 303.567 600.435L 303.59 599.305L 303.59 598.2L 303.613 597.071L 303.636 595.964L 303.682 594.836L 303.705 593.707L 303.751 592.578L 303.798 591.449L 303.844 590.32L 303.913 589.168L 303.982 588.039L 304.051 586.91L 304.12 585.758L 304.19 584.629L 304.281 583.5L 304.374 582.348L 304.466 581.196L 304.558 580.068L 304.65 578.915L 304.766 577.787L 304.88 576.634L 304.996 575.483L 305.134 574.354L 305.249 573.202L 305.387 572.049L 305.525 570.921L 305.663 569.769L 305.802 568.616L 305.963 567.488L 306.101 566.336L 306.263 565.207L 306.424 564.055L 306.609 562.926L 306.77 561.774L 306.954 560.645L 307.139 559.516L 307.322 558.364L 307.506 557.235L 307.691 556.106L 307.898 554.977L 308.106 553.848L 308.314 552.743L 308.521 551.613L 308.728 550.485L 308.935 549.379L 309.165 548.25L 309.396 547.144L 309.626 546.038L 309.857 544.932L 310.087 543.826L 310.341 542.72L 310.571 541.614L 310.825 540.531L 311.078 539.426L 311.331 538.343L 311.585 537.26L 311.839 536.2L 312.115 535.141L 312.368 534.057L 312.645 532.998L 312.921 531.938L 313.198 530.878L 313.474 529.818L 313.773 528.758L 314.05 527.721L 314.35 526.685L 314.625 525.648L 314.925 524.611L 315.225 523.597L 315.525 522.561L 315.847 521.547L 316.147 520.533L 316.446 519.542L 316.768 518.551L 317.091 517.538L 317.415 516.57L 317.736 515.58L 318.059 514.611L 318.381 513.644L 318.704 512.677L 319.027 511.732L 319.373 510.788L 319.718 509.843L 320.04 508.898L 320.386 507.977L 320.731 507.055L 321.077 506.133L 321.422 505.235L 321.769 504.336L 322.137 503.461L 322.482 502.562L 322.828 501.687L 323.197 500.835L 323.565 499.959L 323.911 499.129L 324.28 498.277L 324.648 497.447L 325.017 496.618L 325.386 495.812L 325.754 494.982L 326.123 494.199L 326.492 493.416L 326.883 492.632L 327.252 491.849L 327.644 491.088L 328.012 490.328L 328.403 489.591L 328.773 488.854L 329.164 488.14L 329.556 487.425L 329.947 486.711L 330.339 486.02L 330.73 485.352L 331.122 484.661L 331.514 484.015L 331.906 483.347L 332.297 482.702L 332.69 482.08L 333.081 481.458L 333.473 480.859L 333.887 480.26L 334.279 479.661L 334.67 479.085L 335.085 478.532L 335.477 477.979L 335.892 477.449L 336.284 476.92L 336.698 476.389L 337.09 475.882L 337.504 475.399L 337.896 474.915L 338.31 474.454L 338.726 473.993L 339.117 473.556L 339.532 473.141L 339.946 472.703L 340.338 472.312L 340.753 471.92L 341.168 471.551L 341.56 471.183L 341.974 470.837L 342.389 470.491L 342.804 470.169L 343.195 469.869L 343.61 469.569L 344.024 469.293L 344.44 469.017L 344.831 468.763L 345.246 468.532L 345.66 468.302L 346.052 468.095L 346.467 467.911L 346.881 467.727L 347.273 467.565L 347.688 467.404L 348.103 467.289L 348.494 467.15L 348.909 467.058L 349.3 466.966L 349.716 466.897L 350.107 466.851L 350.521 466.805L 350.914 466.782L 351.305 466.782L 351.305 466.782L 351.973 466.782L 352.641 466.828L 353.287 466.92L 353.932 467.035L 354.577 467.173L 355.199 467.358L 355.821 467.565L 356.443 467.818L 357.042 468.072L 357.641 468.372L 358.24 468.694L 358.816 469.04L 359.392 469.431L 359.968 469.823L 360.544 470.261L 361.097 470.722L 361.626 471.205L 362.18 471.713L 362.71 472.219L 363.239 472.772L 363.769 473.348L 364.276 473.947L 364.783 474.569L 365.267 475.191L 365.774 475.859L 366.258 476.527L 366.718 477.219L 367.202 477.933L 367.664 478.671L 368.124 479.407L 368.562 480.168L 369 480.951L 369.438 481.734L 369.875 482.564L 370.29 483.37L 370.705 484.223L 371.119 485.052L 371.511 485.928L 371.902 486.803L 372.293 487.679L 372.686 488.577L 373.055 489.476L 373.423 490.397L 373.791 491.319L 374.137 492.24L 374.483 493.185L 374.828 494.13L 375.151 495.098L 375.497 496.042L 375.796 497.009L 376.119 497.977L 376.418 498.945L 376.741 499.936L 377.018 500.904L 377.317 501.894L 377.593 502.862L 377.869 503.853L 378.146 504.843L 378.399 505.834L 378.653 506.801L 378.907 507.793L 379.16 508.783L 379.391 509.75L 379.621 510.741L 379.851 511.709L 380.059 512.677L 380.289 513.644L 380.496 514.611L 380.68 515.556L 380.888 516.501L 381.072 517.446L 381.256 518.367L 381.418 519.312L 381.602 520.211L 381.763 521.132L 381.925 522.031L 382.063 522.906L 382.224 523.782L 382.362 524.657L 382.501 525.51L 382.615 526.339L 382.754 527.169L 382.869 527.975L 382.961 528.781L 382.961 528.781L 382.961 528.781z"/>
<path style="stroke:none; fill:#c43131" d="M 369.737 577.003L 369.737 553.434L 462.978 553.434L 462.978 577.003L 369.737 577.003L 369.737 577.003z"/>
<path style="stroke:none; fill:#ffffff" d="M 453.555 555.346L 459.429 555.346L 459.429 574.653L 453.555 574.653L 453.555 555.346L 453.555 555.346z"/>
<path style="stroke:none; fill:#ffffff" d="M 481.018 555.346L 485.003 555.346L 483.644 560.599L 480.741 560.599L 481.018 555.346L 481.018 555.346z"/>
<path style="stroke:none; fill:#ffffff" d="M 491.892 558.203L 493.044 558.226L 494.173 558.341L 495.256 558.526L 496.247 558.779L 497.146 559.171L 497.929 559.654L 498.574 560.276L 499.058 561.037L 499.357 561.958L 499.473 563.019L 499.473 563.019L 498.597 563.019L 496.685 563.019L 494.772 563.019L 493.897 563.019L 493.897 563.019L 493.666 561.935L 492.953 561.29L 491.823 561.106L 491.823 561.106L 491.017 561.221L 490.326 561.681L 490.026 562.626L 490.026 562.626L 490.211 563.341L 490.718 563.848L 491.478 564.17L 492.445 564.378L 493.552 564.562L 494.727 564.746L 495.902 565.022L 495.902 565.022L 497.03 565.46L 498.021 565.99L 498.85 566.682L 499.473 567.488L 499.864 568.432L 500.002 569.515L 500.002 569.515L 499.934 570.46L 499.726 571.313L 499.38 572.096L 498.897 572.764L 498.274 573.386L 497.538 573.893L 496.662 574.308L 495.671 574.653L 494.52 574.907L 493.275 575.045L 491.892 575.09L 491.892 575.09L 490.464 575.045L 489.197 574.907L 488.091 574.676L 487.147 574.331L 486.34 573.916L 485.672 573.409L 485.142 572.787L 484.728 572.096L 484.451 571.336L 484.29 570.46L 484.22 569.515L 484.22 569.515L 485.119 569.515L 487.054 569.515L 488.99 569.515L 489.865 569.515L 489.865 569.515L 490.142 570.691L 490.855 571.427L 491.915 571.681L 491.915 571.681L 493.067 571.52L 493.759 570.99L 493.989 570.137L 493.989 570.137L 493.759 569.354L 493.16 568.801L 492.261 568.386L 491.201 568.11L 490.026 567.857L 488.851 567.627L 487.792 567.35L 487.792 567.35L 486.893 566.958L 486.064 566.382L 485.418 565.575L 484.98 564.539L 484.819 563.225L 484.819 563.225L 484.865 562.581L 485.027 561.912L 485.304 561.221L 485.718 560.576L 486.271 559.931L 487.008 559.378L 487.93 558.894L 489.036 558.526L 490.349 558.272L 491.892 558.203L 491.892 558.203L 491.892 558.203z"/>
<path style="stroke:none; fill:#ffffff" d="M 371.741 568.801L 371.418 569.815L 371.004 570.736L 370.474 571.612L 369.875 572.395L 369.184 573.087L 368.4 573.686L 367.571 574.192L 366.649 574.585L 365.682 574.883L 364.668 575.068L 363.608 575.113L 363.608 575.113L 362.594 575.068L 361.626 574.907L 360.705 574.63L 359.853 574.284L 359.024 573.823L 358.286 573.27L 357.595 572.649L 356.973 571.935L 356.443 571.151L 356.005 570.299L 355.659 569.377L 355.383 568.386L 355.222 567.35L 355.175 566.244L 355.175 566.244L 355.222 565.138L 355.36 564.101L 355.613 563.11L 355.936 562.189L 356.351 561.336L 356.857 560.553L 357.457 559.838L 358.102 559.216L 358.862 558.664L 359.668 558.203L 360.544 557.858L 361.512 557.581L 362.525 557.42L 363.608 557.373L 363.608 557.373L 364.76 557.42L 365.82 557.604L 366.81 557.904L 367.732 558.295L 368.585 558.802L 369.345 559.401L 370.013 560.092L 370.589 560.875L 371.073 561.751L 371.464 562.695L 371.764 563.71L 371.764 563.71L 370.912 563.71L 369.022 563.71L 367.133 563.71L 366.28 563.71L 366.28 563.71L 365.728 562.649L 364.853 561.935L 363.608 561.659L 363.608 561.659L 362.548 561.843L 361.742 562.396L 361.166 563.179L 360.797 564.147L 360.613 565.207L 360.544 566.244L 360.544 566.244L 360.613 567.28L 360.797 568.34L 361.166 569.308L 361.742 570.091L 362.548 570.644L 363.608 570.829L 363.608 570.829L 364.853 570.552L 365.705 569.838L 366.28 568.801L 366.28 568.801L 367.133 568.801L 369 568.801L 370.888 568.801L 371.741 568.801L 371.741 568.801L 371.741 568.801z"/>
<path style="stroke:none; fill:#ffffff" d="M 331.261 555.346L 338.265 555.346L 341.329 566.75L 344.37 555.346L 351.397 555.346L 354.461 575.113L 348.678 575.113L 347.135 563.571L 343.979 575.113L 338.657 575.113L 335.5 563.571L 333.979 575.113L 328.173 575.113L 331.261 555.346L 331.261 555.346z"/>
<path style="stroke:none; fill:#ffffff" d="M 421.161 565.184L 421.161 565.783L 421.161 566.958L 421.161 568.479L 421.161 570.16L 421.161 571.819L 421.161 573.27L 421.161 574.261L 421.161 574.653L 421.161 574.653L 415.355 574.653L 415.355 557.788L 421.161 557.788L 421.161 557.788L 421.161 558.11L 421.161 558.756L 421.161 559.102L 421.161 559.102L 422.036 558.479L 422.958 557.995L 424.041 557.65L 425.354 557.443L 426.967 557.373L 426.967 557.373L 428.165 557.466L 429.272 557.742L 430.261 558.18L 431.137 558.756L 431.852 559.424L 432.404 560.184L 432.75 560.991L 432.865 561.843L 432.865 561.843L 432.865 562.097L 432.865 562.788L 432.865 563.848L 432.865 565.161L 432.865 566.659L 432.865 568.248L 432.865 569.838L 432.865 571.336L 432.865 572.649L 432.865 573.708L 432.865 574.4L 432.865 574.653L 432.865 574.653L 427.036 574.653L 427.036 574.653L 427.036 574.238L 427.036 573.202L 427.036 571.704L 427.036 569.999L 427.036 568.294L 427.036 566.819L 427.036 565.76L 427.036 565.368L 427.036 565.368L 426.783 564.286L 426.138 563.387L 425.239 562.788L 424.133 562.557L 424.133 562.557L 422.521 563.041L 421.553 564.101L 421.161 565.184L 421.161 565.184L 421.161 565.184z"/>
<path style="stroke:none; fill:#ffffff" d="M 472.908 559.447L 472.908 558.387L 472.908 556.406L 472.908 555.346L 472.908 555.346L 478.783 555.346L 478.783 574.653L 472.908 574.653L 472.908 574.653L 472.908 574.4L 472.908 573.939L 472.908 573.708L 472.908 573.708L 472.009 574.377L 470.673 574.907L 468.6 575.113L 468.6 575.113L 467.908 575.09L 467.194 574.976L 466.434 574.814L 465.674 574.561L 464.936 574.215L 464.199 573.754L 463.508 573.179L 462.886 572.464L 462.333 571.635L 461.872 570.644L 461.526 569.515L 461.319 568.225L 461.227 566.75L 461.227 566.75L 461.296 565.368L 461.48 564.124L 461.803 563.041L 462.194 562.074L 462.701 561.244L 463.254 560.53L 463.899 559.931L 464.567 559.424L 465.282 559.009L 466.019 558.71L 466.78 558.479L 467.517 558.318L 468.253 558.226L 468.968 558.203L 468.968 558.203L 470.927 558.433L 472.194 558.917L 472.908 559.447L 472.908 559.447L 472.908 559.447zM 466.825 566.75L 466.963 568.202L 467.378 569.401L 468.047 570.299L 468.945 570.875L 470.074 571.059L 470.074 571.059L 471.203 570.898L 472.171 570.345L 472.908 569.446L 472.908 569.446L 472.908 568.639L 472.908 566.912L 472.908 565.161L 472.908 564.378L 472.908 564.378L 472.355 563.364L 471.388 562.695L 470.074 562.443L 470.074 562.443L 468.945 562.626L 468.047 563.179L 467.378 564.078L 466.963 565.276L 466.825 566.75L 466.825 566.75L 466.825 566.75z"/>
<path style="stroke:none; fill:#ffffff" d="M 395.91 566.244L 395.955 565.207L 396.071 564.239L 396.301 563.318L 396.601 562.443L 396.993 561.613L 397.453 560.852L 397.983 560.161L 398.605 559.539L 399.296 558.986L 400.011 558.502L 400.84 558.11L 401.715 557.788L 402.66 557.558L 403.674 557.42L 404.734 557.373L 404.734 557.373L 405.793 557.42L 406.784 557.558L 407.752 557.788L 408.627 558.11L 409.434 558.502L 410.194 558.986L 410.885 559.539L 411.484 560.161L 412.037 560.852L 412.499 561.613L 412.867 562.419L 413.19 563.318L 413.397 564.239L 413.535 565.207L 413.581 566.244L 413.581 566.244L 413.535 567.28L 413.397 568.248L 413.19 569.193L 412.89 570.068L 412.499 570.875L 412.037 571.635L 411.484 572.326L 410.885 572.948L 410.194 573.501L 409.434 573.985L 408.627 574.377L 407.752 574.699L 406.784 574.93L 405.793 575.068L 404.734 575.113L 404.734 575.113L 403.674 575.068L 402.66 574.93L 401.715 574.699L 400.84 574.377L 400.011 573.985L 399.296 573.501L 398.605 572.948L 397.983 572.326L 397.453 571.635L 396.993 570.875L 396.601 570.068L 396.301 569.193L 396.071 568.248L 395.955 567.28L 395.91 566.244L 395.91 566.244L 395.91 566.244zM 408.097 566.244L 408.028 565.207L 407.821 564.147L 407.407 563.179L 406.784 562.396L 405.909 561.843L 404.734 561.659L 404.734 561.659L 403.559 561.843L 402.683 562.396L 402.061 563.179L 401.647 564.147L 401.44 565.207L 401.37 566.244L 401.37 566.244L 401.44 567.28L 401.647 568.34L 402.061 569.308L 402.683 570.091L 403.559 570.644L 404.734 570.829L 404.734 570.829L 405.909 570.644L 406.784 570.091L 407.407 569.308L 407.821 568.34L 408.028 567.28L 408.097 566.244L 408.097 566.244L 408.097 566.244z"/>
<path style="stroke:none; fill:#ffffff" d="M 373.791 555.346L 374.137 555.346L 375.058 555.346L 376.396 555.346L 377.985 555.346L 379.667 555.346L 381.256 555.346L 382.593 555.346L 383.515 555.346L 383.86 555.346L 383.86 555.346L 384.966 555.369L 386.002 555.507L 386.994 555.691L 387.961 555.968L 388.86 556.314L 389.689 556.729L 390.472 557.212L 391.186 557.742L 391.855 558.364L 392.454 559.032L 392.96 559.747L 393.421 560.53L 393.79 561.382L 394.09 562.28L 394.297 563.202L 394.435 564.193L 394.481 565.23L 394.481 565.23L 394.435 566.267L 394.297 567.257L 394.09 568.179L 393.79 569.077L 393.421 569.907L 392.96 570.714L 392.454 571.427L 391.855 572.096L 391.186 572.718L 390.472 573.247L 389.689 573.732L 388.86 574.146L 387.961 574.492L 386.994 574.768L 386.002 574.953L 384.966 575.068L 383.86 575.113L 383.86 575.113L 383.515 575.113L 382.593 575.113L 381.256 575.113L 379.667 575.113L 377.985 575.113L 376.396 575.113L 375.058 575.113L 374.137 575.113L 373.791 575.113L 373.791 575.113L 373.791 555.346L 373.791 555.346zM 380.45 570.437L 381.234 570.437L 382.708 570.437L 383.491 570.437L 383.491 570.437L 384.367 570.368L 385.242 570.114L 386.049 569.653L 386.786 568.963L 387.362 568.018L 387.731 566.774L 387.869 565.23L 387.869 565.23L 387.731 563.686L 387.362 562.443L 386.786 561.498L 386.049 560.806L 385.242 560.345L 384.367 560.092L 383.491 560.023L 383.491 560.023L 382.708 560.023L 381.234 560.023L 380.45 560.023L 380.45 560.023L 380.45 570.437L 380.45 570.437z"/>
<path style="stroke:none; fill:#ffffff" d="M 443.325 557.373L 444.546 557.42L 445.721 557.558L 446.828 557.788L 447.818 558.11L 448.716 558.548L 449.5 559.078L 450.168 559.724L 450.675 560.461L 451.021 561.313L 451.205 562.257L 451.205 562.257L 451.205 562.557L 451.205 563.341L 451.205 564.515L 451.205 565.99L 451.205 567.603L 451.205 569.285L 451.205 570.921L 451.205 572.372L 451.205 573.57L 451.205 574.354L 451.205 574.653L 451.205 574.653L 445.33 574.653L 445.33 574.653L 445.33 574.215L 445.33 573.409L 445.33 572.971L 445.33 572.971L 444.454 573.663L 443.533 574.261L 442.519 574.722L 441.321 574.999L 439.915 575.113L 439.915 575.113L 438.81 574.999L 437.795 574.699L 436.897 574.215L 436.091 573.593L 435.422 572.81L 434.939 571.957L 434.616 570.99L 434.5 569.976L 434.5 569.976L 434.547 569.285L 434.663 568.594L 434.892 567.902L 435.215 567.234L 435.653 566.589L 436.229 566.013L 436.92 565.483L 437.795 565.022L 438.832 564.654L 440.053 564.378L 441.435 564.193L 443.049 564.124L 443.049 564.124L 444.432 563.917L 445.122 563.364L 445.33 562.603L 445.33 562.603L 444.984 561.751L 444.177 561.221L 443.186 561.037L 443.186 561.037L 442.196 561.175L 441.413 561.659L 441.09 562.512L 441.09 562.512L 440.238 562.512L 438.349 562.512L 436.46 562.512L 435.584 562.512L 435.584 562.512L 435.63 561.82L 435.769 561.152L 436.022 560.483L 436.39 559.861L 436.874 559.286L 437.519 558.756L 438.326 558.295L 439.293 557.904L 440.445 557.627L 441.782 557.443L 443.325 557.373L 443.325 557.373L 443.325 557.373zM 443.002 566.865L 441.735 567.119L 440.768 567.81L 440.399 568.985L 440.399 568.985L 440.583 569.815L 441.206 570.414L 442.311 570.644L 442.311 570.644L 443.625 570.391L 444.707 569.584L 445.33 568.225L 445.33 568.225L 445.33 567.833L 445.33 567.096L 445.33 566.705L 445.33 566.705L 444.707 566.842L 443.878 566.888L 443.002 566.865L 443.002 566.865L 443.002 566.865z"/>
<path style="stroke:none; fill:#f7b31e" d="M 471.318 588.385L 472.263 588.385L 473.991 588.385L 474.935 588.385L 474.935 588.385L 476.479 588.684L 477.516 589.467L 477.907 590.596L 477.907 590.596L 477.631 591.633L 476.894 592.324L 475.88 592.647L 475.88 592.647L 475.88 592.647L 475.88 592.67L 475.88 592.67L 475.88 592.67L 477.147 593.454L 477.723 594.582L 477.861 596.057L 477.861 596.057L 477.446 596.057L 476.663 596.057L 476.249 596.057L 476.249 596.057L 476.042 594.467L 475.374 593.569L 474.06 593.269L 474.06 593.269L 473.715 593.269L 473.092 593.269L 472.747 593.269L 472.747 593.269L 472.747 596.057L 471.318 596.057L 471.318 588.385L 471.318 588.385zM 472.747 592.048L 473.185 592.048L 473.991 592.048L 474.429 592.048L 474.429 592.048L 475.488 591.887L 476.11 591.449L 476.295 590.712L 476.295 590.712L 476.133 590.136L 475.626 589.744L 474.659 589.606L 474.659 589.606L 474.152 589.606L 473.231 589.606L 472.747 589.606L 472.747 589.606L 472.747 592.048L 472.747 592.048zM 474.267 585.713L 475.35 585.804L 476.364 586.058L 477.309 586.449L 478.161 586.98L 478.944 587.647L 479.59 588.408L 480.143 589.26L 480.534 590.228L 480.788 591.242L 480.88 592.301L 480.88 592.301L 480.788 593.384L 480.534 594.398L 480.143 595.343L 479.59 596.218L 478.944 596.978L 478.161 597.647L 477.309 598.177L 476.364 598.568L 475.35 598.821L 474.267 598.914L 474.267 598.914L 473.208 598.821L 472.194 598.568L 471.249 598.177L 470.374 597.647L 469.613 596.978L 468.945 596.218L 468.415 595.343L 468.024 594.398L 467.77 593.384L 467.678 592.301L 467.678 592.301L 467.77 591.242L 468.024 590.228L 468.415 589.26L 468.945 588.408L 469.613 587.647L 470.374 586.98L 471.249 586.449L 472.194 586.058L 473.208 585.804L 474.267 585.713L 474.267 585.713L 474.267 585.713zM 474.267 598.2L 475.327 598.108L 476.318 597.831L 477.239 597.393L 478.069 596.818L 478.783 596.103L 479.359 595.296L 479.796 594.375L 480.073 593.361L 480.165 592.301L 480.165 592.301L 480.073 591.242L 479.796 590.251L 479.359 589.329L 478.783 588.523L 478.069 587.809L 477.239 587.233L 476.318 586.795L 475.327 586.518L 474.267 586.426L 474.267 586.426L 473.208 586.518L 472.217 586.795L 471.318 587.233L 470.489 587.809L 469.774 588.523L 469.198 589.329L 468.761 590.251L 468.484 591.242L 468.392 592.301L 468.392 592.301L 468.484 593.361L 468.761 594.375L 469.198 595.296L 469.774 596.103L 470.489 596.818L 471.318 597.393L 472.217 597.831L 473.208 598.108L 474.267 598.2L 474.267 598.2L 474.267 598.2z"/>
</g>
</g>
<g>
<g>
<path style="stroke:#000000; stroke-width:0.5; fill:none" d="M 227 705.89L 200 705.89"/>
<path style="stroke:#000000; stroke-width:0.5; fill:none" d="M 236 714.89L 236 741.89"/>
</g>
<g>
<path style="stroke:#000000; stroke-width:0.5; fill:none" d="M 227 377.89L 200 377.89"/>
<path style="stroke:#000000; stroke-width:0.5; fill:none" d="M 236 368.89L 236 341.89"/>
</g>
<g>
<path style="stroke:#000000; stroke-width:0.5; fill:none" d="M 573 377.89L 600 377.89"/>
<path style="stroke:#000000; stroke-width:0.5; fill:none" d="M 564 368.89L 564 341.89"/>
</g>
<g>
<path style="stroke:#000000; stroke-width:0.5; fill:none" d="M 573 705.89L 600 705.89"/>
<path style="stroke:#000000; stroke-width:0.5; fill:none" d="M 564 714.89L 564 741.89"/>
</g>
</g>
</svg>