<?xml version="1.0" encoding="utf-8"?>
<svg version="1.1"
	 id="svg5931" inkscape:version="0.91 r13725" sodipodi:docname="moto enduro 3.svg" xmlns:cc="http://creativecommons.org/ns#" xmlns:dc="http://purl.org/dc/elements/1.1/" xmlns:inkscape="http://www.inkscape.org/namespaces/inkscape" xmlns:rdf="http://www.w3.org/1999/02/22-rdf-syntax-ns#" xmlns:sodipodi="http://sodipodi.sourceforge.net/DTD/sodipodi-0.dtd" xmlns:svg="http://www.w3.org/2000/svg"
	 xmlns="http://www.w3.org/2000/svg" xmlns:xlink="http://www.w3.org/1999/xlink" x="0px" y="0px" viewBox="0 0 2669.934 1397.653"
	 style="enable-background:new 0 0 2669.934 1397.653;" xml:space="preserve">
<sodipodi:namedview  bordercolor="#666666" borderopacity="1.0" id="base" inkscape:current-layer="layer1" inkscape:cx="734.88733" inkscape:cy="-367.89683" inkscape:document-units="px" inkscape:pageopacity="0.0" inkscape:pageshadow="2" inkscape:window-height="1017" inkscape:window-maximized="1" inkscape:window-width="1920" inkscape:window-x="-8" inkscape:window-y="-8" inkscape:zoom="0.35" pagecolor="#ffffff" showgrid="false">
	</sodipodi:namedview>
<g>
	<path d="M429.78,292.972c1.5,0.218-5.797-6.919-8.617-8.429C409.984,278.561,425.893,292.401,429.78,292.972z"/>
	<path d="M701.241,372.166c-5.069,0-9.295,2.397-9.295,5.273l0,0C691.946,381.809,719.15,372.166,701.241,372.166z"/>
	<path d="M455.175,321.083c1.129,0,3.051,2.41,4.272,5.355v0c1.535,3.704,2.432,4.536,2.91,2.697
		c1.347-5.177-9.168-18.672-12.192-15.648C448.887,314.766,453.053,321.083,455.175,321.083z"/>
	<path d="M812.085,408.419c-2.388,0-1.859,35.225,0.566,37.675v0C818.338,451.84,814.249,408.419,812.085,408.419z"/>
	<path d="M1395.03,1043.392c1.896,1.896,3.845,1.2,3.845-1.373C1398.875,1037.815,1391.082,1039.444,1395.03,1043.392z"/>
	<path d="M1307.419,510.586c1.369,2.214,4.619,2.141,3.296,0C1309.346,508.372,1306.096,508.445,1307.419,510.586z"/>
	<path d="M2281.553,886.81c-2.716-3.37-7.407-8.43-9.51-16.168c-1.847-6.793-15.307-27.19-17.944-27.19
		c-0.816,0-2.212,1.297-3.102,2.883c-3.436,6.123-5.879-4.13-17.33-1.982c-4.584,0.86-5.976,0.45-7.381-2.176
		c-1.983-3.704-0.961-5.317,3.37-5.317c8.281,0-0.658-6.156-24.073-54.14c-22.491-46.092-40.275-40.223,39.668-67.875
		c27.413-9.482,36.959-9.864,66.522-2.664c25.593,6.233,138.356,28.084,160.275,14.52c36.769-22.752-46.154-42.984-56.573-48.8
		c-119.327-66.624-221.458-4.001-262.4-6.649c-17.349-31.423-35.771-83.186-65.871-133.584
		c-12.377-20.724-10.724-19.522-26.278-19.1c-14.97,0.407-38.289,14.843-35.065-69.239c28.904,2.288,27.792,2.985,31.911-2.252
		c4.804-6.106,4.869-18.979,0.131-25.633c-8.384-11.775-17.438,4.149-27.009-14.908c-8.593-17.114-22.655-13.584-30.661-22.144
		c-13.484-14.415-22.219-0.178-16.085,13.286c3.459,7.591-3.582,15.245-3.582,27.65c0,7.996,6.471,15.584,14.518,17.025
		c28.165,5.043,15.943,56.698,10.185,56.698c0,0-17.558,14.823-31.304,20.347c-12.515,5.029-21.25,12.535-26.478,22.753
		c-3.217,6.289-10.371,12.927-13.931,12.927c-8.147,0-1.047,30.994,14.004,14.883c7.482-8.01,26.563-10.521,34.163-16.499
		c14.853-11.683,25.209,11.468,25.209,29.109c0,20.913,6.043,22.419,0.472,29.882c-2.516,3.37-10.756,10.284-18.322,3.035
		c-6.579-6.304-19.429-7.54-25.177-13.185c-8.048-7.904-11.525-9.179-22.323-8.183c-9.613,0.887-10.372,1.28-14.428,7.474
		c-4.088,6.244-7.237,15.15-8.338,16.633c-2.91,3.919-19.657,8.26-26.739,6.931c-4.781-0.897-7.327,0.177-19.288,8.135
		c-80.588,53.621-193.236,61.993-230.341,50.519c-22.974-7.104-39.792-30.063-45.004-21.632c-0.557,0.903-4.014-1.878-7.681-6.179
		c-8.637-10.131-12.932-13.507-17.247-13.551c-2.49-0.026-3.764-1.348-4.41-4.577c-1.181-5.905-14.769-12.789-28.31-14.52
		c-0.437-0.188-0.888-0.245-1.382-0.175c-25.497-2.589-45.976-26.422-49.621-5.895c-1.428,8.042-1.866,8.651-6.211,8.651
		c-11.221,0,7.675-20.671-3.141-26.46c-5.145-2.753-7.935,0.626-4.056,4.913c2.822,3.118,2.817,3.494-0.122,9.408
		c-8.185,16.475-16.817,10.999-22.455,9.095c-28.754-9.713-39.011,11.247-77.665-22.766c3.617-9.471,2.28-5.971,5.894-15.433
		c13.56,11.411,41.756,21.47,47.038,21.471c14.878,0.001,22.903,15.782,37.947,6.609c25.564-15.587-92.675-54.736-98.055-55.608
		c-12.172-1.976-36.657-30.496-36.657-19.955c0,4.076,19.288,19.606,17.458,26.9c-3.893,15.51,25.955,33.092,7.018,2.028
		c16.178,9.554,18.802,10.153,14.268,20.21c-13.493,29.921-35.565-12.526-47.285-22.745c-14.752-12.863,0.051-15.884,3.224-17.684
		c1.344-0.759-1.964-5.669-3.819-5.669c-1.206,0-6.359-6.393-11.453-14.207c-16.184-24.828-10.427-6.48-25.754-15.828
		c-6.086-3.712-6.192-3.563,5.582-7.808c9.703-3.498-2.2-10.979,6.36-18.109c23.924-19.927,38.865,40.612,53.958,29.884
		c6.09-4.328,11.545-5.067,22.893-17.483c12.379-13.544,14.228-31.586,9.437-35.562c-3.873-3.215-14.41-25.77-7.436-32.081
		c12.571-11.375-4.607-16.498,37.117-37.333c31.059,1.882,35.854,1.826,55.615,6.193c7.411,1.638,4.5-4.585,0-10.509
		c-7.287-9.589-68.067-38.934-87.883-44.762c-1.05,2.762-2.625,8.101-5.593,8.101c-3.197,0-9.521-6.232-8.311-8.19
		c1.239-2.005-7.448-24.979-6.354-26.749c0.809-1.309,10.504,2.942,10.504,4.605c0,0.49-0.814,2.411-1.809,4.269
		c-3.408,6.369,6.752,11.329,6.752,2.898c0-7.724,7.481,1.745,15.303,1.745c5.392,0,8.484,1.988,26.841,17.25
		c50.566,42.039-36.314-62.792-70.982-79.074c-59.674-28.028-68.156-8.029-88.984-0.192c-8.289,3.119-15.013,7.345-23.894,15.019
		c-19.392,16.755-8.197,9.524-18.716,38.316c-3.56,9.743-4.354,14.759-4.354,27.504c0,8.615-0.737,16.044-1.648,16.607
		c-3.188,1.97-1.597,4.12,3.049,4.12c4.984,0,20.511,9.999,17.226,11.094c-4.838,1.611-34.115-20.303-24.494,9.504
		c4.534,14.048,6.303,22.71,4.396,21.532c-3.175-1.962-2.86-15.765-8.344-15.765c-4.975,0-6.337,7.085-13.477,0.624
		c-4.996-4.521-8.591-1.658-7.561,6.022c0.72,5.367,0.296,6.9-2.293,8.285c-4.252,2.276-5.214,1.466-11.382-9.575
		c-12.691-22.718-17.653-19.913-7.45,4.211c4.609,10.899,6.408,22.475-1.578,9.735c-7.547-12.042-17.486-27.935-15.186-13.756
		c2.386,14.699-5.572-2.251-8.746-2.251c-8.725,0,18.164,23.677,18.164,34.498c0,8.001-10.119-8.132-13.472-8.132
		c-4.496,0,2.913,13.522-11.983-1.819c-12.788-13.172-8.768-15.189-14.438-23.299c-8.15-11.66,6.608-4.296,9.707-9.258
		c8.919-14.28,48.304-12.354,58.615-19.035c10.916-7.073,33.178-4.598,6.398-12.338c-69.227-20.003-235.857,51.739-265.982,32.747
		c-15.401-9.709-17.131-10.289-27.019-9.053c-8.262,1.032-9.54,0.755-13.484-2.93c-8.161-7.624-23.055-12.637-32.654-18.42
		c-11.943-7.194-13.005-6.233-9.421,5.82c4.443,14.947-6.629,50.994-9.149,50.994c-2.589,0-5.085-45.085-7.071-47.072
		c-2.12-2.12-4.851,8.223-3.727,14.115c0.605,3.172,1.049,7.621,0.986,9.887c-0.354,12.858,8.77,35.065,3.073,43.091
		c-8.132,11.456-1.898,22.099-14.701,8.642c-20.079-21.105-20.348-18.289-24.503-13.008c-3.609,4.589-6.887,4.395-8.451,7.003
		c-2.762,4.603-1.569,0.807-7.724-5.347c-3.934-3.935-1.556,0.12,9.515-22.958c9.837-20.507,8.12-29.261,4.443-50.87
		c41.52,3.593,37.269,6.354,40.858-2.213c2.663-6.355,2.667-6.357,5.136-2.653c3.156,4.735,5.372,4.735,5.34,0
		c-0.036-5.233-1.144-6.311-12.901-12.556c-13.219-7.02-19.697-6.544-38.579,2.835c-18.101,8.992-60.531,22.437-61.937,26.653
		c-1.127,3.38,11.931,14.934,9.031,7.373c-2.07-5.394,20.043,3.983,16.25,4.196c-27.86,1.554-40.625,0.294-52.694,8.771
		c-8.007,5.625-18.967,2.37-44.939,5.145c-18.665,1.995-2.104-4.105-13.323-4.105c-2.762,0-5.481,0.742-6.041,1.648
		c-1.888,3.055-7.415,1.85-7.415-1.617c0-3.487-6.279-6.08-10.655-4.401c-1.332,0.511-2.861,0.221-3.397-0.646
		c-3.543-5.732-4.039,3.674-7.143,9.735c-1.625,3.174-10.236,21.637-6.825,29.87c2.266,5.471,0.274,13.198-3.402,13.198
		c-2.101,0-7.985-6.599-8.081-9.063c-0.285-7.341-4.11-14.571-9.339-17.657c-6.475-3.82-6.469-3.2-0.238-23.286
		c4.427-14.274,4.125-13.506,20.513-10.439c7.102,1.33,14.025,1.847,15.384,1.151c3.174-1.626,35.63-7.011,38.95-2.469
		c4.448,6.082,10.472-4.15,22.394-4.15c6.889,0,5.87-3.992-10.996-3.556c-27.73,0.717-66.27-29.341-79.304-7.1
		c-8.483,14.476-9.652-0.056-26.452,9.121c-7.086,3.871-7.232,3.881-12.323,0.874c-4.268-2.521-5.397-2.655-6.586-0.779
		c-1.918,3.028-8.801,28.352-13.392,33.985c-7.752,9.511-4.044-18.012-1.286-27.962c1.964-7.088,2.684-12.455,1.791-13.348
		c-3.429-3.428-22.375,0.297-25.427-14.008c-1.599-7.494-24.113-21.832-27.202-17.323c-1.772,2.587-13.527,9.228-14.54,8.215
		c-0.522-0.522-0.084-4.383,0.973-8.581c1.719-6.827,2.153-16.241-3.189-11.406c-7.42,6.715-4.072-18.893-11.152-25.973
		c-3.999-3.999-6.383-3.099-3.938,1.487c2.189,4.106,2.401,40.102,0.237,40.102c-8.539,0-1.865-47.905-13.652-19.448
		c-16.957-34.955-40.942-17.3-36.327-34.519c0.744-2.777,2.208-3.708,5.827-3.708c5.923,0,15.037-4.481,13.657-6.714
		c-0.554-0.897-4.286-3.171-8.293-5.055c-19.97-9.387,9.126-10.164,3.488-21.068c-3.855-7.455-7.263-10.008-13.363-10.008
		c-10.056,0-5.186-16.995-25.556-37.489c-3.57-3.592-9.271-5.277-7.353-2.174c0.521,0.844,0.208,1.991-0.695,2.55
		c-1.538,0.95-17.818-22.21-21.609-22.21c-6.61,0-44.328-54.347-44.351-63.904c-0.009-3.934-10.923-44.959-24.707-54.33
		c-10.838-7.367-12.941-1.45-42.488,1.387c-54.034,5.19-45.519,37.413-106.089,57.339c-21.491,7.071-72.749,67.232-54.465,87.683
		c19.808,22.156,66.605-27.268,104.779-11.775c13.357,5.421,14.127,1.351,33.632,4.841
		c38.768,6.937,106.879,128.304,140.917,148.824c39.502,23.814,29.102,70.413,77.973,116.781
		c23.041,21.861,63.36,23.002,104.43,40.02c24.488,10.146,174.087,24.016,191.975,31.091
		c68.178,26.969,94.444-11.008,193.623,21.565c24.591,8.075,78.588,17.61,108.066,17.61c17.386,0,18.804,0.245,21.197,3.662
		c10.883,15.537-16.517,13.283,59.77,4.566c60.008-6.857,74.475-31.427,109.502-0.811c16.203,14.164,68.936,37.665,68.936,48.575
		c0,11.286-136.321,17.313,55.582,66.355c27.019,6.905,0.547,16.758,16.87,48.302c16.177,31.261,13.81,19.503,107.165,85.258
		c26.804,18.879,60.622,45.649,103.804,45.649c46.311,0,3.307,45.379,3.307,75.268c0,7.695-11.252,22.931-17.57,19.288
		c-3.106-3.174-87.158-151.611-254.326-115.385c-103.722,22.478-172.22,99.736-187.077,191.333
		c-26.072,160.738,127.334,294.449,282.652,259.852c116.643-25.984,186.161-124.888,186.201-221.772
		c0.008-20.718,1.922-22.611,13.863-22.036c25.898,1.249-8.976,16.243,17.947,22.917c21.484,5.327,18.046-8.427,45.463-8.427
		c33.312,0,6.842-27.48,57.033-1.648c43.492,22.384,47.701,10.654,96.401,11.453c54.778,0.902,111.216-19.693,111.216-19.693
		c3.295,0,28.852-27.394,28.852-30.925c0-6.359,10.448-19.432,17.976,1.215c9.521,26.112,44.441,24.218,58.829,17.519
		c7.75-3.609,9.034-5.076,16.162-18.476c12.169-22.875,14.433-32.781,15.369-67.225c2.372-87.361-21.113-53.609-1.046-100.695
		c17.823-41.823,22.226-63.186,34.845-71.8c8.424-5.75,24.706-23.626,31.694-26.245c5.985-2.242,6.043-2.178,19.506,21.712
		c22.348,39.661,61.138,109.203,68.051,118.234c5.597,7.312,10.194,10.224-6.015,25.683
		c-126.228,120.379-66.315,362.289,137.708,395.448h-0.01c142.396,23.143,280.883-84.919,280.883-233.135
		C2614.967,889.56,2363.882,825.95,2281.553,886.81z M1454.902,601.217c0,1.919-0.991,2.397-2.472,0
		C1451.076,599.027,1454.902,599.018,1454.902,601.217z M1428.536,591.33c0,2.205-7.114,2.179-5.767,0
		C1424.14,589.111,1428.536,589.221,1428.536,591.33L1428.536,591.33z M1406.805,583.612c1.19-0.475,2.611-0.417,3.158,0.131v-0.001
		C1411.098,584.877,1403.691,584.858,1406.805,583.612z M1284.908,469.554c-0.489,3.455-1.547,4.016-8.386,4.443
		c-6.948,0.435-7.828,0.111-7.828-2.883c0-2.292,1.073-3.373,3.347-3.373c8.769,0,5.031-25.851-10.676-15.56
		c-7.737,5.069-13.573-5.862-4.521-5.862c2.546,0,6.015-1.013,7.708-2.252c2.93-2.143,2.806-2.529-2.569-7.963
		c-6.953-7.03-10.612-8.479-13.676-5.416c-2.042,2.043-2.623,2.034-4.369-0.069c-2.729-3.289-10.961-3.091-12.864,0.31
		c-1.361,2.433-1.749,2.326-3.511-0.965c-1.09-2.035-1.583-4.097-1.098-4.583c1.188-1.188,23.32-0.917,29.12,0.357
		c5.255,1.154,4.711,0.313,5.694-8.255c3.182,4.309,10.711,13.6,10.711,18.996c0,2.472,0.998,5.323,2.217,6.335
		c2.911,2.416,6.48,12.432,9.662,19.327C1284.748,464.043,1285.215,467.38,1284.908,469.554L1284.908,469.554z M2145.495,698.684
		c-3.731-6.388-7.514-12.067-8.406-12.618c-3.688-2.279-0.167-15.391,11.567,7.641v0
		C2157.605,711.271,2155.126,715.175,2145.495,698.684z M251.633,131.569c-2.677-4.705-2.668-4.933,0.21-4.933
		C261.477,126.636,258.811,144.183,251.633,131.569z M233.875,132.363L233.875,132.363c-2.673,3.221-4.977,3.216-4.977-0.012
		C228.899,127.673,238.796,126.434,233.875,132.363z M1078.065,389.22c1.275-1.276,7.289,3.784,9.576,8.056h0
		C1092.711,406.746,1076.344,390.941,1078.065,389.22z M858.453,425.83c3-3.037,3.839,0.962,1.805,8.594l0,0
		C853.593,459.435,855.085,429.24,858.453,425.83z M1038.819,489.163c-1.323-2.139,5.229-2.203,6.591,0
		C1046.729,491.298,1040.178,491.362,1038.819,489.163z M1289.398,374.296c-0.894-2.349-0.705-2.538,0.922-0.922v0
		C1293.047,376.078,1290.909,378.261,1289.398,374.296z M1298.52,368.347c-2.478-7.28-1.127-10.463,1.504-3.544
		C1302.314,370.829,1301.418,376.86,1298.52,368.347z M1636.322,963.44c1.837,2.118,11.379,34.519,11.379,38.64
		c0,15.059-130.594,31.177-234.82,59.804l0,0c-29.417,8.081-27.51,6.058-25.811,2.884c2.965-5.541-1.754-20.128-7.564-23.38
		c-9.657-5.405,33.403-8.724,67.156-24.632C1468.514,1006.458,1629.95,956.095,1636.322,963.44z M1211.756,990.889
		c87.195-86.976,202.139-47.15,240.079,6.134c12.894,18.107-31.216,27.569-29.716,4.797c0.215-3.268-0.114-7.476-0.732-9.352
		c-1.48-4.494-11.51-9.404-14.041-6.874c-2.428,2.429-5.053-0.094-1.833-2.164c6.934-4.456-11.341-4.897-17.322,0.067
		c-1.662,1.379-5.688,1.805-11.977,1.264c-6.475-0.557-86.969,16.427-108.385,42.427c-7.225,8.772-29.499,47.86-32.782,57.528
		c-14.508,42.735,24.978,143.71,143.238,104.011c15.927-5.347,62.502-29.702,70.339-36.782c27.178-24.553,3.41-49.088,31.623-57.532
		c9.619-2.879,10.909-1.108,10.895,14.957c-0.033,38.037-16.34,68.191-51.709,95.613c-22.283,17.277-41.04,27.017-65.504,34.014l0,0
		C1240.06,1277.286,1102.377,1099.993,1211.756,990.889z M1805.812,859.93c0.036,1.359-1.76,5.438-3.994,9.063
		C1790.922,886.684,1805.68,854.914,1805.812,859.93z M1863.125,987.314c-1.349-2.388,0.071-39.224,1.511-39.224
		c3.625,0,11.52,22.081,5.424,34.483v0C1867.635,987.506,1864.459,989.677,1863.125,987.314z M1763.051,921.12
		c0-1.855,0.487-2.039,1.833-0.694v0C1768.807,924.349,1763.051,928.379,1763.051,921.12z M1763.051,902.774
		c2.673,4.996-3.296,4.153-3.296,0C1759.755,898.19,1760.888,898.732,1763.051,902.774z M1727.394,887.12
		c-1.314,3.422-2.244,3.064-2.244,0C1725.15,883.82,1728.657,883.828,1727.394,887.12z M1387.478,1119.469
		c7.363,13.448,8.376,13.384,1.196,20.402h0c-6.934,6.779-8.259,6.489-4.453-0.977
		C1387.885,1131.709,1387.43,1124.131,1387.478,1119.469z M1281.457,1141.847c26.77,23.504,80.549,18.232,61.024,31.906v0
		c-4.944,3.462-35.616,5.606-56.586-7.676c-34.134-21.619-45.55-82.064-19.191-42.586
		C1271.501,1130.674,1278.14,1138.935,1281.457,1141.847z M1695.988,982.948c1.218-3.174,17.868-14.363,9.04-0.533
		c-2.074,3.25-4.142,5.928-4.596,5.953C1697.903,988.505,1695.146,985.143,1695.988,982.948z M2025.921,909.306
		c-4.661,7.542-13.106-12.082-11.572-25.482C2027.26,896.418,2027.882,906.131,2025.921,909.306L2025.921,909.306z
		 M1599.938,771.739L1599.938,771.739c-6.358,7.662-17.629-8.754-7.178-8.939C1597.23,763.248,1603.079,767.957,1599.938,771.739z
		 M1614.146,924.196c5.548,0,12.431,9.072,19.357,10.81c7.839,1.967,18.212,21.053-18.76,24.042
		c-37.369,3.022-61.77,19.657-36.886-31.262C1588.599,905.809,1599.376,924.196,1614.146,924.196z M1791.732,1074.247
		c-10.75-0.077-13.869-0.68-16.067-3.109c-18.478-20.413,64.454-10.889,67.629-8.254c3.341,2.773,2.535,9.162-1.513,11.998v0
		C1833.726,1080.525,1811.016,1074.384,1791.732,1074.247z M1981.646,1015.584c1.079-2.813,4.118-2.467,5.135,0.584v0
		C1987.572,1018.54,1980.19,1019.378,1981.646,1015.584z M1236.561,403.474c0.59,0.954-0.996,1.648-3.767,1.648
		c-12.818,0-10.001,18.017-12.299,7.415C1218.057,401.294,1234.566,400.246,1236.561,403.474z M1253.864,412.537
		c2.219,1.372,2.091,4.12,0,4.12C1251.664,416.657,1251.681,411.188,1253.864,412.537z M989.286,418.305
		c3.242,0,3.281,3.296,1.018,3.296C987.873,421.6,986.097,418.305,989.286,418.305z M693.285,412.237
		c1.189-0.477,2.61-0.419,3.158,0.129v0.001C697.577,413.502,690.169,413.483,693.285,412.237z M708.836,409.8
		c0.226-1.053-1.327-2.357-3.453-2.898c-11.189-2.849,16.224-10.419,16.224-7.066C721.607,402.002,707.481,416.092,708.836,409.8z
		 M703.034,412.366L703.034,412.366c1.135,1.135-6.272,1.117-3.158-0.129C701.065,411.76,702.487,411.818,703.034,412.366z
		 M2288.716,955.506c-2.176,0-2.176-4.944,0-4.944C2290.876,950.562,2290.903,955.506,2288.716,955.506z M2283.772,942.42
		L2283.772,942.42c0.001,1.973-3.399,1.956-6.545-0.034C2272.559,939.435,2283.772,937.464,2283.772,942.42z M2160.183,789.073
		c2.327,4.353,0.71,4.408-1.648,0C2156.208,784.718,2157.824,784.664,2160.183,789.073z M2201.033,859.604
		c5.699,10.05,4.998,16.217-11.936-15.328C2148.469,768.592,2158.828,785.179,2201.033,859.604z M2223.534,896.332L2223.534,896.332
		c-1.419,2.296-3.564,1.788-4.675-1.107C2214.801,884.653,2226.785,891.071,2223.534,896.332z M2211.267,879.704
		c2.549,4.766,0.887,6.385-1.647,1.648C2207.07,876.586,2208.732,874.967,2211.267,879.704z M2544.789,1112.052
		c0.392,84.293-71.028,140.292-133.336,155.534h0.001c-63.306,15.486-179.645-18.881-211.199-133.288
		c-21.535-78.078,26.4-137.688,32.706-138.903c1.934-0.372,4.635,4.297,10.311,17.826c8.267,19.706,8.323,20.894,1.507,31.696
		c-16.115,25.535-15.514,54.814,1.599,78.062c16.999,23.091,18.12,43.453,46.479,43.453c16.667,0,32.061,29.661,78.299,29.661
		c49.826,0,97.258-42.812,77.589-105.463c-21.213-67.561-78.964-48.276-91.47-75.801c-5.477-12.054-11.225-21.657-13.483-22.523
		c-1.29-0.495-2.345-2.545-2.345-4.556c0-4.56-8.239-11.374-8.239-14.009c0-1.437-1.483-3.538-3.295-4.67
		c-1.858-1.161-3.296-3.843-3.296-6.15c0-5.017-8.756-15.562-11.805-19.557C2353.844,913.92,2543.955,933.557,2544.789,1112.052z
		 M2306.882,1046.914c-9.792,11.799-17.961-23.865-1.733-6.591C2308.322,1043.701,2308.617,1044.824,2306.882,1046.914z
		 M2415.66,1134.184c7.916-15.39,17.668-2.41,4.774,11.579l0,0c-4.462,4.84-8.282,7.486-10.81,7.486
		C2399.487,1153.249,2411.663,1141.954,2415.66,1134.184z M2414.622,1076.911c4.084-1.567,10.866,9.12,10.866,17.122
		C2425.488,1106.182,2407.328,1079.711,2414.622,1076.911z M2372.886,1048.473c0.079-1.92,0.47-2.31,0.996-0.995h0.001
		C2375.03,1050.349,2372.713,1052.723,2372.886,1048.473z M2260.767,1097.138l-0.001,0c-3.081,15.033-4.739,19.603-10.289,7.235
		c-9.518-21.211,1.321-70.08,12.406-51.167C2273.376,1071.111,2266.611,1068.612,2260.767,1097.138z M2354.046,1145.834
		c-2.195,7.046-28.162-5.988-19.335-11.446C2336.745,1133.132,2354.694,1143.757,2354.046,1145.834z M2343.012,1156.502
		c8.801,4.443,11.483,4.985,24.636,4.985c22.142,0,30.439,10.008,0.165,15.573
		C2344.783,1181.294,2314.328,1142.022,2343.012,1156.502z M2103.796,616.629c3.956,3.955,16.703,26.319,15.819,27.75
		C2112.985,655.105,2089.905,602.737,2103.796,616.629z M2067.168,551.925c2.946,4.768-5.856,4.872-5.856-0.473
		C2061.312,549.488,2065.891,549.858,2067.168,551.925z M2245.168,873.972c3.621,8.665,2.112,10.455-2.259,2.679
		C2237.713,867.405,2241.956,866.283,2245.168,873.972z M1045.366,393.933c4.193-4.099,23.068,31.936,26.898,34.169
		c1.544,0.901,2.046,1.66,1.115,1.687C1068.887,429.923,1042.76,396.48,1045.366,393.933z M254.176,103.566
		c1.214,0,3.096,1.95,4.181,4.332C264.058,120.409,247.752,103.566,254.176,103.566z M1273.948,488.55
		c-1.027,1.835-1.865,2.095-2.651,0.824c-1.963-3.174-26.197-1.399,0.625-7.499c14.11-3.209,13.252-3.254,13.252,0.696
		c0,2.551-1.099,3.296-4.862,3.296C1277.533,485.867,1274.806,487.017,1273.948,488.55z M1336.561,312.006
		c0.621-0.631,4.777,0.064,9.235,1.545c13.657,4.537,13.486,17.418,10.311,17.418
		C1353.572,330.968,1335.323,313.264,1336.561,312.006z M1388.164,362.278c-1.344-2.174,0.626-5.26,2.585-4.049
		C1394.249,360.39,1391.16,367.127,1388.164,362.278z M599.666,457.756c0,4.471-3.295,4.192-3.295,1.018
		C596.37,455.601,599.666,453.277,599.666,457.756z M2262.35,864.971c0,2.258-3.296,2.225-3.296-1.018
		C2259.055,860.765,2262.35,862.538,2262.35,864.971z M2238.294,850.043c2.687,0,5.065,5.639,3.468,8.224v0
		c-1.544,2.498-5.751,1.999-6.829-0.809C2233.611,854.013,2235.41,850.043,2238.294,850.043z M2219.567,820.502L2219.567,820.502
		c12.644,25.049-12.067-5.245-9.064-10.105C2212.145,807.74,2214.385,810.237,2219.567,820.502z M1384.044,358.334
		c0,1.109-4.944,1.068-4.944-0.949C1379.1,355.373,1384.044,357.223,1384.044,358.334z M760.497,432.311
		c-0.503,7.29-11.049-2.198-14.689,7.447v-0.001c-4.509,11.941-12.125-2.557-1.158-18.982c10.141-15.189-7.16-12.164,2.217-21.952
		c2.42-2.526,4.401-6.477,4.401-8.779c0-3.843,5.655-11.126,7.334-9.447c0.236,0.236-2.322,17.152-2.326,18.757
		c-0.025,8.832,11.752-14.242,12.952-25.376c1.424-13.205,6.437-11.084,8.581-5.641
		C785.873,388.804,761.427,418.847,760.497,432.311z M327.418,189.843c3.53,3.53,2.082,4.572-2.757,1.982
		C318.841,188.71,324.159,186.583,327.418,189.843z M285.287,155.609c-5.126-11.251,12.02,4.187,14.537,7.365
		C311.984,178.328,288.346,162.322,285.287,155.609z"/>
</g>
</svg>
