<?xml version="1.0" encoding="utf-8"?>

<!DOCTYPE svg PUBLIC "-//W3C//DTD SVG 1.1//EN" "http://www.w3.org/Graphics/SVG/1.1/DTD/svg11.dtd">
<svg version="1.1" id="Layer_1" xmlns="http://www.w3.org/2000/svg" xmlns:xlink="http://www.w3.org/1999/xlink" x="0px" y="0px"
	 viewBox="0 0 1415.215 1657.486" style="enable-background:new 0 0 1415.215 1657.486;" xml:space="preserve">
<style type="text/css">
	.st0{stroke:#000000;stroke-width:0.0938;}
</style>
<path d="M362.362,28.856c3.818-0.663,7.258,1.795,10.985,2.103c4.595-0.057,9.03-1.703,13.659-1.463
	c1.009,0.025,40.854,0.298,45.756,1.463c12.694,2.087,36.805,17.425,52.569,49.78c3.166,7.544,5.464,15.477,9.533,22.632
	c8.018,12.801,0.976,57.909-0.594,63.234c14.05,8.309,43.741,5.404,45.951,26.462c-1.145,21.807-12.884,41.163-15.031,49.025
	c3.338,2.389,6.47,5.052,9.476,7.83c5.955,2.252,7.944,8.721,12.402,12.711c16.093,14.32,8.4,13.606,15.385,16.631
	c1.463,3.692,5.647,5.098,7.293,8.653c2.012,4.309,6.195,7.03,8.161,11.362c2.355,5.132,7.053,9.064,8.15,14.768
	c0.629,1.875,0.617,4.286,2.446,5.498c3.326,1.612,7.178,1.6,10.528,3.201c5.098,1.692,8.447,6.195,13.111,8.63
	c53.42,29.642,76.547,79.799,72.972,117.414c-2.286,7.773-5.635,15.225-7.613,23.101c11.111,33.709,3.425,4.382,11.831,33.834
	c1.715,4.526-1.417,8.71-2.48,12.962c2.48,8.767,2.458,17.98,1.623,26.987c-7.338-1.932-14.871-0.16-22.187,0.869
	c-1.052,0.64-1.726,1.692-2.526,2.583c3.715,2.48,5.727,7.053,10.139,8.527c10.138,4.127,11.002,0.754,17.203,1.052
	c5.539,0.021,16.398,3.708,21.489,9.087c0.034-1.737,0.686-2.275,1.943-1.6c25.456,14.735,13.741,11.302,26.713,15.671
	c0.732,2.297,1.315,4.641,1.863,7.007c11.346,0.719,8.535,3.391,29.685,32.188c1.577,5.795,4.332,11.385,8.721,15.568
	c49.388-23.178,119.831-75.965,184.1-84.151c3.429,0.183,7.053,0.377,10.059-1.635c4.252-2.56,9.487-4.481,12.071-8.962
	c5.041,2.332,8.596-2.961,13.408-3.418c0.331-0.537,0.983-1.6,1.314-2.138c5.201-1.886,11.088-2.423,15.271-6.344
	c3.795-0.732,6.824-2.823,9.865-5.052c5.555-0.343,9.567-4.698,14.94-5.715c4.961-3.098,10.39-5.372,16.106-6.641
	c3.875-2.115,9.099-1.6,11.385-6.07c5.235,0.88,8.013-4.824,13.042-4.561c3.383-0.171,7.213-0.08,8.55-3.886
	c4.435-1.292,10.848-0.503,13.179-5.384c6.329,0.568,23.115-8.825,30.885-9.339c3.703,0.046,6.207-3.006,9.385-4.389
	c2.355-0.343,4.744-0.274,7.133-0.343c1.28-3.349,5.418-1.806,8.184-2.195c-0.034-0.526-0.103-1.589-0.137-2.115
	c5.109,0.732,9.327-2.195,13.637-4.401c3.041-0.32,7.156-1.372,9.43,1.269c2.56,1.966,1.635,5.647,1.326,8.401
	c-2.949,5.498-9.385,7.521-13.145,12.254c-4.206,0.892-7.853,3.201-11.236,5.738c-2.012,1.726-5.007,1.577-6.847,3.509
	c-2.195,1.555-3.726,4.309-6.458,4.904c-11.054,0.996-12.948,11.662-33.743,18.997c-0.697,1.246-1.395,2.492-2.057,3.749
	c-1.612,0.183-3.223,0.354-4.801,0.537c-0.732,1.257-1.452,2.503-2.172,3.761c-6.211,1.019-67.158,44.29-68.492,62.605
	c5.555,0.354,10.848-1.303,16.06-2.983c1.84-1.212,3.201-3.315,5.532-3.646c23.794-3.69,26.387-7.72,33.469,5.635
	c0.537,4.824,1.086,9.647,1.863,14.437c-0.137,6.47-2.709,12.756-2.378,19.283c1.257,8.036-0.309,16.14-0.217,24.221
	c0.377,3.086-1.76,5.384-2.983,7.978c0.331,5.087,0.629,10.287-0.183,15.34c-4.001,7.75-5.201,16.517-6.938,24.964
	c-0.594,2.766-2.926,4.595-4.606,6.698c-1.737,1.657-0.732,4.184-0.72,6.275c-4.526,3.543-5.601,9.544-5.475,14.974
	c-2.137,5.372-5.601,10.242-6.687,16.048c-1.829,4.515-1.989,10.39-6.412,13.271c1.109,6.858-7.373,10.665-5.464,17.454
	c-8.234,8.153-5.037,15.251-9.807,20.849c-2.663,3.258-4.344,7.156-5.498,11.168c-0.846,3.075-3.166,5.51-3.749,8.676
	c5.675-2.354,17.586-14.914,36.635-14.94c17.686-15.118,35.61-7.927,48.694-12.334c7.098-2.88,14.905-1.257,22.347-1.555
	c0.263,1.737,0.48,3.486,0.697,5.235c8.276,2.812,15.82-3.886,24.187-3.052c-0.24,1.657-0.48,3.326-0.652,5.007
	c1.269-0.549,2.572-1.109,3.829-1.749c3.418,0.24,7.144-0.034,10.047,2.16c5.841,4.081,13.328,7.144,20.495,5.178
	c2.995-0.983,5.235,1.92,7.841,2.903c3.578,1.189,5.292,4.744,8.024,7.064c2.218,0.023,4.355-0.812,6.527-1.257
	c3.566,2.72,7.899,4.344,11.053,7.647c2.332,2.48,5.887,2.538,8.939,3.509c1.317,0.439,16.163,11.959,19.683,17.957
	c2.023,2.686-0.034,5.955,0.034,8.95c3.646-0.674,6.618-2.926,9.75-4.755c1.532-0.389,2.263,1.429,3.269,2.263
	c3.406,3.509,7.476,6.333,10.573,10.173c-1.715,2.492-4.024,4.858-4.561,7.944c0.96,2.652,3.418,4.344,5.704,5.818
	c4.058,0.252,8.059-1.314,12.174-0.674c2.217,3.703,5.349,6.767,7.487,10.55c6.264,1.315,9.522,7.361,13.5,11.785
	c2.503,2.606-0.492,5.441-2.08,7.533c-1.623,1.726-1.669,4.092-1.794,6.321c3.784,0.549,7.578,0.069,11.35-0.343
	c2.949,1.737,4.629,5.052,6.538,7.819c7.811,24.072,9.148,6.659,16.277,28.919c-2.343,1.863-4.904,3.635-6.298,6.39
	c-1.429,4.526,1.326,10.882,6.652,10.893c3.521-0.034,6.893,0.914,10.013,2.572c0.777,3.635,1.532,7.293,2.446,10.916
	c-3.075,1.6-5.555,4.024-7.11,7.144c1.257,3.601,2.4,7.373,4.995,10.31c3.681-0.034,7.373-0.023,11.076,0.034
	c3.772,4.446,1.177,10.082,0.423,15.134c3.269,2.915,3.052,7.853,2.8,11.888c5.532,3.578,7.613,10.127,8.767,16.288
	c-2.286,0.72-4.618,1.212-6.973,1.497c-0.537,2.149-1.109,4.275-1.635,6.435c3.406,2.686,8.779,1.657,11.442,5.178
	c0.469,4.401,0.309,9.042-1.474,13.156c0.88,0.572,1.783,1.155,2.698,1.76c-0.64,0.423-1.909,1.269-2.549,1.692
	c3.269,5.51,5.807,11.682,5.064,18.243c-5.849,4.291-9.517,0.866-10.356,12.196c3.406,1.463,6.595,3.486,10.265,4.355
	c1.052,3.692,0.343,7.361-1.897,10.47c2.812,1.314,3.726,4.321,4.252,7.167c-2.926,2.366-7.167,0.651-10.356,2.538
	c-2.263,0.731-2.458,3.361-3.223,5.247c2.732,2.195,6.252,2.972,9.167,4.744c2.652,6.195,0.377,13.054-0.572,19.398
	c-1.395,0.149-2.778,0.297-4.138,0.457c-1.417,2.64-1.429,5.669,1.086,7.658c-1.234,0.812-2.458,1.635-3.646,2.48
	c3.651,4.92,6.165,2.042,0.091,21.695c-2.686-0.011-5.372-0.011-8.036,0.023c2.069,1.726,4.664,3.166,5.898,5.669
	c-1.189,3.646-3.475,6.813-7.018,8.482c0.732,1.383,1.532,2.743,2.332,4.126c-3.098,2.983-7.499,3.441-11.488,2.275
	c0,1.44,0.091,2.88,0.263,4.332c1.006,1.954,3.143,3.052,4.207,5.006c-2.367,18.863-7.42,20.328-9.419,22.209
	c-2.789,1.646-1.509,6.755-5.429,7.007c-3.441,0.446-6.367,2.263-9.27,4.001c0.926,3.875-0.377,7.681-1.76,11.282
	c0.834,1.12,1.68,2.24,2.538,3.406c-3.029,3.692-8.996,5.475-8.744,11.145c-3.441,1.863-7.418,2.115-10.927,3.738
	c-2.149,1.086-4.607,0.24-6.858,0.194c-0.857,3.852,0.674,7.373,2.492,10.676c-14.689,2.845-0.748,5.391-19.135,14.883
	c-4.538,0.64-9.121,1.154-13.465,2.743c0.263,1.417,0.56,2.88,0.891,4.332c-3.15,2.181-18.738,15.197-34.314,14.128
	c-3.506,7.04-23.357,9.555-31.217,10.23c-0.949-1.554-1.875-3.086-2.8-4.606c-3.303,1.646-6.264,4.366-10.116,4.492
	c-3.898-0.069-6.835,3.12-10.733,3.006c-5.121,0.149-10.299,0.32-15.351-0.709c-0.869-3.086-1.006-6.447-2.641-9.247
	c-2.629-0.16-3.383,2.755-4.652,4.469c-30.534,2.437-14.149,1.389-32.223-1.532c-0.457-1.532-0.88-3.052-1.314-4.549
	c-4.252-0.915-8.767-1.817-11.773-5.224c-8.573,5.441-20.964,0.594-24.976-8.356c-0.869-2.812-0.309-5.784-0.274-8.641
	c-9.018-4.461-5.599-2.579-13.774,0.526c-15.192-0.818-26.484-11.782-27.479-15.534c0.72-2.755,2.275-5.189,3.463-7.75
	c-1.292-1.372-2.172-3.875-4.435-3.624c-2.766,0.674-5.19,2.286-7.887,3.12c-6.275-3.246-13.134-7.43-15.225-14.631
	c-1.372,0.366-2.709,0.777-4.046,1.189c-9.961-11.34-14.546-10.17-7.853-20.209c1.04-1.177,0.069-2.48-0.366-3.624
	c-3.692,1.589-8.824,3.955-11.991,0.194c-4.595-4.526-10.55-8.756-12.059-15.34c0.274-3.783,3.864-6.092,5.715-9.122
	c0.24-1.977-1.52-3.166-2.835-4.229c-4.641-2.046-9.202,2.115-13.819,0.606c-7.636-9.962-6.567-12.821-7.396-19.798
	c1.692-1.669,3.349-3.361,4.984-5.075c-1.303-1.497-2.606-2.949-3.978-4.332c-2.926,0.777-5.944,1.074-8.95,1.143
	c-8.446-15.61-6.396-12.21-1.303-19.512c-2.972-0.755-6.035-1.212-8.984-0.137c-3.406-4.492-5.807-9.979-6.001-15.648
	c3.052-2.332,8.23-4.241,6.813-9.007c-18.31,3.961-27.417,12.268-44.122,11.831c-13.317-6.716-23.23-0.35-24.473,0.057
	c-5.281,1.234-10.722,1.474-15.991,2.686c-0.217,6.241,5.212,10.082,8.104,14.963c0.046,4.047-1.669,8.767,1.212,12.254
	c4.412,6.081,7.304,13.111,8.23,20.586c-2.606,1.795-5.818,1.497-7.636-1.166c-2.48-0.263-5.327-0.914-5.932-3.726
	c-3.132-8.093-10.127-13.442-15.797-19.637c-2.4-2.446-3.166-5.898-4.961-8.699c-4.572-5.201-8.641-10.893-11.853-17.031
	c-1.943-0.011-3.886-0.011-5.795,0.046c6.801,13.957,17.157,25.833,25.239,39.058c3.429,6.093,10.07,10.173,12.048,17.02
	c-3.143,0.023-6.653-0.549-8.561-3.326c-5.278-7.151-17.618-15.765-22.015-27.182c-16.224-18.854-7.365-17.457-15.054-14.78
	c-1.989,1.657-4.024-0.263-5.624-1.417c-8.447,1.052-17.477-2.846-25.49,1.303c-2.629,1.017-4.241,3.978-7.213,4.104
	c-4.355,0.434-8.733,1.349-12.711,3.178c-13.069,13.029-14.231,10.298-18.312,11.168c1.345,3.568,7.248,8.969,2.298,13.099
	c-5.189,0.343-9.785-2.48-13.877-5.304c-3.521-0.926-7.235-0.354-10.813-0.4l-0.023,1.006c2.012,0.08,4.035,0.149,6.07,0.332
	c-12.628,8.1-26.437,3.07-37.081,8.927c-44.765,26.235-63.488,17.157-78.825,20.381c-2.766-0.537-5.075-2.297-7.224-3.989
	c-4.515-3.555-9.956-5.555-15.157-7.796c-14.162-7.512-25.056-20.598-26.279-21.661c-3.303-3.166-5.635-7.464-9.899-9.533
	c-10.815-5.331-30.196-12.6-38.155-30.428c-3.499-5.061-11.73-20.42-12.094-26.404c4.595-2.526,9.43-4.801,13.762-7.704
	c0.532-10.688-1.43-34.601-1.646-35.617c-0.72-7.67-4.812-14.482-9.224-20.586c-0.366-0.229-1.097-0.663-1.463-0.892
	c-13.878,11.755-42.912,44.966-49.746,48.957c-3.658,0.572-7.51,2.08-11.145,0.709c-8.516-2.206-14.402-13.237-9.042-20.906
	c2.789-3.441,6.058-6.504,8.413-10.299c-4.721-2.309-9.796,0.366-14.677,0.572c-4.046,0.96-10.105-0.492-11.842,4.412
	c0.601,5.173,12.14,34.654,8.813,65.725c-0.145,1.002-7.291,145.527-4.526,154.598c10.237,2.226,0.054,18.27,6.184,33.914
	c1.132,2.492,0.869,5.304,0.914,7.99c-5.753,3.542-8.271,5.068-6.63,14.757c2.069,2.686,5.327,3.943,7.887,6.047
	c2.206,3.886,0.686,9.453-2.995,11.956c-2.926,1.806-3.932,5.292-4.081,8.55c2,4.069,5.795,6.744,9.19,9.579
	c0.034,2.858,0.171,5.727-0.091,8.596c-2.378,1.703-5.51,2.092-7.681,4.104c-2.318,10.726,1.358,7.965,6.378,13.671
	c0.892,2.675,1.086,5.601,1.029,8.424c-4.376,10.807-5.538,7.699-8.962,8.699c-0.914,5.875,5.475,7.921,7.441,12.574
	c0.377,2.892,0.492,5.818,0.869,8.733c-2.812,1.726-6.378,2.035-8.973,4.035c-1.532,3.132,0.514,5.944,3.041,7.693
	c3.646,2.412,2.378,7.259,2.275,10.973c-1.703,2.812-3.692,5.578-3.566,9.064c-1.132,0.915-2.275,1.829-3.395,2.766
	c1.109,2.366,2.423,4.664,3.292,7.167c-0.08,3.269-0.789,6.492-0.926,9.773c-2.32,0.652-4.687,1.143-7.041,1.612
	c0.834,2.72,2.286,5.167,3.463,7.761c0.754,8.013-3.715,15.157-7.247,21.992c-0.652,3.943-0.48,8.036-1.84,11.876
	c-1.806,0.766-4.035,1.12-5.281,2.823c-1.177,3.395,0.48,7.11-0.766,10.539c-1.406,3.909-2.526,8.664-6.71,10.516
	c-0.652,3.063-1.509,6.092-2.275,9.156c-1.303,0.183-2.595,0.377-3.875,0.583c-4.549,5.532-3.121,14.014-8.767,18.746
	c-1.143,1.086-1.715,2.595-2.435,4.001c-2.915-0.011-5.681-0.88-8.07-2.526c-1.36,4.561-3.612,8.779-5.75,13.019
	c-2.915,1.074-5.167,3.875-8.264,4.241c-2.778-1.76-5.498-3.852-8.973-3.646c-1.097,3.955-2.412,7.841-4.001,11.636
	c-4.298,0.046-8.584,0.057-12.882-0.057c-0.606-1.2-1.269-2.332-2-3.406c-2.206,0.217-4.321,0.88-6.47,1.383
	c0.023,1.429,0.046,2.892,0.057,4.378c-4.126-0.217-8.733,0.949-12.425-1.463c-1.909-2.355-2.869-5.327-4.241-7.99
	c-2.64,0.514-4.492,2.515-6.641,3.966c-4.789-0.194-9.876-1.474-13.682-4.469c-1.635-3.109-2.4-6.573-3.601-9.842
	c-2.149,1.143-3.829,3.566-6.321,3.852c-6.344-3.063-10.562-8.973-13.705-15.054c-2.012-3.909-6.961-4.298-9.556-7.567
	c-2.915-3.635-6.092-7.121-8.15-11.328c-1.875-3.738-5.315-6.584-6.413-10.71c-0.469-2.972-3.715-3.909-5.327-6.092
	c-2.138-3.246-3.155-7.03-4.252-10.688c-2.057-5.601-6.778-9.785-8.436-15.568c-1.257-3.441,1.92-7.076,0.286-10.368
	c-1.657-0.411-3.383-0.423-4.995-0.949c-5.49-8.019-2.78-10.256-2.32-18.872c-0.777-0.149-2.343-0.446-3.132-0.594
	c-2.183-4.378-5.921-8.116-6.355-13.202c-1.497-4.858,6.047-8.344,2.858-13.076c-2.172-1.166-4.652-1.532-6.984-2.195
	c-7.122-17.345,2.729-8.731,1.875-23.741c-1.635,0.16-3.258,0.389-4.881,0.629c-1.886-2.846-5.612-4.892-5.349-8.699
	c0.023-2.618-0.846-5.921,1.349-7.876c6.355-7.575,4.367-6.185,3.223-12.459c-2.915-0.514-7.167,0.629-8.882-2.446
	c-2.618-3.669-1.532-8.961,1.863-11.739c5.247-4.515,2.435-11.991,1.406-17.706c-2.263,1.623-4.892,2.48-7.704,2.217
	c-0.686-3.326-2.16-6.778-1.097-10.162c1.406-2.846,5.464-3.223,6.31-6.492c0.926-4.069-0.537-8.116-1.143-12.105
	c-2.503-0.08-5.007-0.172-7.498-0.274c-5.394-13.212,5.002-9.799,6.538-18.346c0.331-3.864-1.006-7.601-1.417-11.396
	c-1.795,0.823-3.578,1.692-5.372,2.538c-4.412-3.418-4.389-9.613-1.189-13.865c0.846-2.48,3.795-1.692,5.784-1.703
	c-0.046-3.875-0.034-7.75-0.091-11.613c-1.772-1.315-3.441-2.755-4.869-4.424c-0.983,0.16-1.977,0.343-2.96,0.526
	c-1.349-3.669-1.863-8.207,0.994-11.259c3.041-1.772,7.693-3.635,6.961-7.979c1.027-8.849-15.165-1.763-6.287-21.089
	c1.052-3.006,4.767-3.212,6.435-5.487c0.834-5.109-5.727-7.076-6.995-11.408c-1.009-11.362,2.575-10.598,7.67-12.642
	c0.24-1.669,0.503-3.315,0.8-4.961c-2.56-1.738-4.972-3.703-7.533-5.441c0.697-6.264,2.492-12.448,6.07-17.683
	c2.995-4.218-2.126-8.356-1.486-12.779c-0.674-4.824,3.703-7.796,6.87-10.539c-0.937-2.72-2.983-5.269-2.48-8.31
	c0.343-5.487,3.864-10.047,4.927-15.34c1.063-4.046,0.937-8.379,2.766-12.208c1.04-2.572,3.086-4.595,4.035-7.201
	c2.732-8.001,5.029-16.288,9.819-23.364c1.429-4.378,5.395-6.927,8.104-10.39c2.88-11.682,0.194-23.89,3.063-35.56
	c1.417-2.046,3.178-3.829,4.664-5.818c8.624-31.739,7.514-54.253,7.418-86.392c-1.966,0.286-4.401,0.034-5.155,2.378
	c-7.258-1.017-13.499,2.858-19.66,6.07c-1.783,1.086-3.955,0.777-5.944,0.972c-7.862-0.058-23.493,10.775-52.798-10.128
	c-3.109-2.732-7.236-5.784-6.744-10.436c0.34-15.753,6.336-41.824,9.122-46.968c10.325-31.783,31.313-39.336,44.316-52.843
	c0.737-2.125,15.623-27.803,30.508-35.8c3.578-1.692,3.235-5.91,4.092-9.179c-1.932,0.126-4.092,1.063-5.864-0.149
	c-1.177-2.035-1.726-4.355-2.378-6.584c2.309,1.703,4.515,3.566,6.79,5.338c-2.355-2.549-4.606-5.361-5.007-8.927
	c-0.354,0.949-0.697,1.92-1.052,2.892c-5.513-4.483-4.319-10.931-4.355-39.915c-0.057-3.921,2.069-7.441,2.275-11.316
	c0.263-4.595-0.137-9.202,0.011-13.797c0.123-7.178,4.323-7.675,2.149-34.166c-1.326-6.55-4.618-12.722-4.446-19.546
	c0.229-4.309-1.44-8.31-3.246-12.116c-2.08-4.035-1.177-8.687-1.337-13.019c0.229-4.584-0.892-9.59,1.703-13.694
	c15.165-25.724,22.444-28.894,27.296-39.458c-7.087-3.258-12.871-9.11-20.644-10.768c-5.189-1.875-9.144-5.932-13.785-8.756
	c-3.715,1.04-6.573,3.978-10.322,4.972c-3.601,0.629-5.955,4.389-9.796,4.081c-6.104-1.795-10.413-6.836-15.568-10.276
	c-4.801-0.423-9.567-1.314-14.38-1.612c-4.961-0.766-6.55,6.207-11.453,5.738c-3.806,0.023-7.224,1.783-10.71,3.052
	c-3.241,8.506-1.379,5.935-9.75,9.487c-2.263-1.635-4.012-3.806-5.944-5.772c-3.189,0.766-6.252,3.429-9.659,2.172
	c-2.412-1.897-4.412-4.252-6.527-6.447c-30.354-0.452-13.014-3.402-37.789,2.938c-8.63,3.052-19.34-0.32-26.667,6.412
	c-10.222,10.142-20.411-5.046-10.242-11.488c6.137-1.113,8.758,1.521,21.181-3.921c-0.011-0.4-0.046-1.177-0.069-1.577
	c-4.138-1.154-8.299-3.418-9.727-7.761c-3.543-10.082-9.533-19.489-10.47-30.325c2.608-11.482,13.224-26.575,10.859-35.137
	c-3.269-8.939-5.201-18.289-8.139-27.307c-1.154-4.206-4.904-6.984-6.161-11.11c-1.646-5.121-4.721-9.579-7.636-14.025
	c-11.9-51.53-6.722-66.867-15.511-82.368c-0.514-3.132-2.606-5.647-3.486-8.641c-0.114-4.446,3.258-8.013,3.635-12.379
	c1.635-10.23,7.19-19.295,9.407-29.354c2.149-1.212,4.892-1.989,6.104-4.332c1.715-4.389,2.4-9.236,5.087-13.214
	c1.577-2.549,4.069-4.389,5.658-6.927c1.097-1.989,0.034-4.275,0.366-6.39c4.155-8.135,8.694-6.809,17.203-18.266
	c3.315-4.549,9.51-4.847,13.9-7.876c10.333-9.52,39.7-33.467,53.106-33.686c12.025-0.155,13.298-3.65,25.319-13.557
	c3.463-3.269,8.013-4.927,11.899-7.59c2.686-2.24,4.492-5.487,7.704-7.098c3.178-1.669,5.67-4.229,8.23-6.687
	c3.178-0.926,6.493-1.497,9.476-3.018c3.029-1.555,6.63-0.537,9.773-1.715c5.978-2.069,11.693-4.858,17.843-6.458
	c-0.126-5.395-0.263-11.385,3.543-15.694c1.52,0.812,3.041,1.623,4.572,2.446c17.778-12.004,28.914-11.562,55.827-17.626
	c1.2-9.236-3.315-17.877-3.338-27.033c-0.182-46.477,8.622-42.65,11.602-47.917c6.436-8.691-2.23-15.968,26.976-45.025
	c3.372-3.589,7.544-6.275,11.705-8.859C345.285,41.289,346.21,32.231,362.362,28.856 M146.759,372.206
	c-4.607,3.589-5.818,9.659-7.887,14.814c-0.926,4.001-5.041,5.704-7.236,8.836c-3.875,6.241-9.293,12.162-16.483,14.437
	c-6.514,1.367,0.646,7.014,1.029,16.986c0.046,7.761,3.555,15.065,2.858,22.895c0.389,6.915-3.715,13.637-1.486,20.495
	c0.789,4.607,6.207,6.184,7.681,10.436c10.252,29.288,6.435,30.014,4.481,53.563c1.943,5.532,5.898,10.047,8.424,15.305
	c5.506,0.364,17.287-9.356,24.107-11.293c6.71-1.383,13.317,1.212,19.958,1.886c6.355,0.286,10.665,5.555,16.346,7.716
	c13.774,5.189,28.691,6.241,42.487,11.373c6.104,1.932,11.625,5.269,17.672,7.338c1.612-2.252,2.343-5.83,5.361-6.573
	c7.59-0.834,15.443,3.098,22.792-0.149c1.543-0.766,3.841-1.715,3.989-3.658c-2.294-2.618-42.482-35.29-49.586-115.711
	c-2.189-18.224-1.899-10.323-5.132-18.015c-1.143-2.812-1.6-5.875-3.086-8.55c-1.383-2.64-4.458-4.058-5.418-6.95
	c-1.566-4.458-2.423-9.122-3.715-13.659c-1.532-5.075-2.595-10.493-0.754-15.648c-4.355-5.727-9.293-11.042-15.214-15.168
	c-5.43-3.669-8.687-10.345-15.317-12.151C169.063,342.957,165.61,359.061,146.759,372.206 M521.577,391.82
	c-0.32,8.219,0.686,16.403,0.994,24.61c3.171,2.35,27.023,18.343,28.862,20.198c3.819,7.115,9.616,29.949,5.635,36.12
	c-4.309,6.813-10.585,12.116-15.1,18.769c3.955,1.246,7.761,2.892,11.408,4.858c0.48,2.983-0.846,7.373,2.606,8.904
	c7.201,3.726,15.443,5.224,22.324,9.682c2.492,1.692,5.624,1.36,8.493,1.429c2.618-3.886,6.195-7.11,8.184-11.408
	c1.92-4.001,4.812-7.441,8.264-10.23c-3.921-4.012-5.452-9.396-7.407-14.448c-21.255-7.572-13.379-20.018-18.335-27.468
	c-4.846-8.447-10.093-16.654-14.951-25.09c-2.035-3.875-6.047-6.104-8.413-9.727c-4.755-7.258-6.081-16.3-11.796-23.01
	c-2.195,0.08-4.389,0.171-6.573,0.206c-2.709-3.932-4.835-8.207-6.195-12.791C525.487,383.682,521.372,387.191,521.577,391.82
	 M206.69,555.254c-0.869,4.744-2.72,9.407-2.252,14.311c22.076,2.289,27.103,7.656,38.292,13.145
	c2.435-3.246,5.532-6.184,6.995-10.025C246.876,569.03,221.796,558.316,206.69,555.254 M1118.204,883.069
	c-3.086,1.932-5.715,4.538-7.921,7.418c-2.972-2.983-8.264-5.144-11.854-2.058c-1.623,3.258-2.069,7.258-1.932,10.848
	c5.772,5.932,11.396,12.013,16.883,18.232c1.28-2.538,0.366-5.235-0.217-7.796c-1.474-5.681-1.2-11.648-3.018-17.249
	c4.032,1.658,7.622,28.579,8.058,32.211c7.81,12.724,11.19,14.976,17.603,21.638c1.92,2.252,5.144,2.195,7.567,0.812
	c4.504-5.818,4.344-13.465,6.584-20.175c0.937-4.298-2.8-7.59-3.006-11.728c0.686,1.166,1.349,2.378,1.989,3.624
	c1.749-0.263,3.498-0.594,5.247-0.972c-0.812,1.497-1.749,2.949-2.218,4.607c-0.503,7.201,0.229,14.471,2.709,21.295
	c14.459-3.615,26.695-9.933,51.792-6.79c1.817-0.091,2.846,1.44,4.012,2.606c3.555-0.137,7.224,0.389,9.396,3.544
	c1.977,0.171,3.989,0.206,5.944,0.686c2.732,0.823,4.001,4.446,6.927,4.686c2.766-1.154,5.247-2.96,8.139-3.886
	c-0.068-0.629-0.183-1.898-0.251-2.526c-8.881-5.91-13.465-17.009-24.038-20.643c-1.063,1.372-2.423,2.492-4.241,2.412
	c0.229-2.629,0.995-5.269,0.651-7.91c-6.447-5.941-13.853-13.363-14.963-7.453c-2.035-4.035-4.595-8.036-8.779-10.082
	c-23.322-13.502-19.486-8.685-26.039-6.813c-3.212-2.252-3.955-7.396-8.481-7.819c-5.67-2.526-10.905,1.269-16.3,2.572
	c1.76,0.606,3.589,1.189,5.407,1.749c-0.011,3.235,0.046,6.481-0.229,9.727c-0.463-1.002-4.989-15.104-11.488-16.414
	C1127.474,881.343,1122.628,881.458,1118.204,883.069 M1080.426,896.374c-0.72,1.257-1.429,2.515-2.137,3.784
	c-6.562,2.716-11.009,11.088-11.991,17.66c0.663,2.435,2.458,4.401,3.132,6.858c1.346,4.768,5.966,20.431,8.367,24.793
	c2.4,4.264,1.417,9.887,4.824,13.625c13.225-2.972,26.347-6.55,39.401-10.242c-1.783-8.71-1.932-17.832-5.189-26.176
	c-1.955-5.007-6.755-7.876-9.659-12.196c-9.542-13.917-12.427-13.739-18.243-17.352
	C1086.382,895.471,1083.25,896.237,1080.426,896.374 M1046.078,937.536c-5.807,4.892-4.321,13.328-5.178,20.072
	c0.229,2.275-2.298,2.915-3.658,4.149c2.858,3.761,11.74,11.152,17.066,9.327c8.55-2.595,17.432-4.389,25.719-7.704
	c-6.252-8.607-14.711-15.191-21.775-23.044C1054.091,939.845,1050.33,936.29,1046.078,937.536 M876.186,947.08
	c4.605,12.406,8.381,36.262,8.71,39.172c5.612,0.869,10.985-1.269,16.483-1.966C898.306,976.448,883.745,948.584,876.186,947.08
	 M302.592,951.63c-1.976,6.252-2.469,10.646-2.355,50.637c0.469,9.179-2.595,18.22-1.383,27.422
	c0.217,3.281,1.395,6.527,0.903,9.853c-2.099,15.085,1.721,19.066,3.098,25.261c4.755,0.263,9.544-0.194,14.288,0.217
	c3.109,1.886,5.498,4.732,8.539,6.71c5.784-0.206,11.556-1.052,17.34-0.24c11.448,15.747,9.782,3.718,18.78,14.425
	c1.692,2.035,4.309,2.869,6.675,3.875c0.297,1.943,0.514,3.909,0.743,5.887c15.607,7.478,15.45,15.283,20.152,20.449
	c3.169-7.04,3.128-41.808,2.572-48.18c-1.623-4.127-5.852-6.538-7.51-10.676c-4.915-11.899-10.425-23.593-14.162-35.949
	c-5.315-4.892-5.189-12.722-8.481-18.803c-18.5-35.471-0.595-19.611-45.093-44.225C312.113,955.847,307.61,953.116,302.592,951.63
	 M1185.347,958.145c-2.915,3.041-6.927,4.492-10.219,7.007c-1.486,4.869-2.023,10.127-1.269,15.18
	c2.332,5.018,3.429,10.47,5.041,15.751c0.834-0.194,2.515-0.594,3.361-0.789c4.046-9.945,8.641-19.729,14.174-28.919
	c-0.201,5.83-8.881,27.708-9.304,29.948c0.766-0.034,2.309-0.114,3.075-0.149c4.561-4.378,7.178-10.596,12.734-13.899
	c-0.114-6.355-0.777-12.688-2.046-18.906c-1.177,0.32-2.343,0.663-3.486,1.029c0.354-1.143,0.709-2.275,1.086-3.395
	C1194.206,959.62,1189.736,959.002,1185.347,958.145 M811.581,975.451c-1.292,3.178,1.737,6.104,2.972,8.859
	c4.492-2.903,8.081-6.893,11.762-10.71c-1.772-1.669-3.269-4.275-5.932-4.412C816.987,970.478,814.096,972.879,811.581,975.451
	 M797.658,982.995c-1.543,2.961-1.657,6.287-0.857,9.499c1.612,0.16,3.223,0.343,4.846,0.526c1.6-3.395,0.366-6.698-1.2-9.807
	C799.75,983.166,798.356,983.052,797.658,982.995 M1232.487,984.687c-5.75,2.32-6.23,10.196-11.705,12.779
	c-0.636,13.495,7.377,10.499,12.905,21.158c3.303,0.309,5.693,2.526,8.104,4.584c1.612,1.303,3.406-0.492,4.801-1.292
	c3.372,2.149,7.693,2.012,10.47-1.04c1.189,0.274,2.389,0.549,3.612,0.834C1261.917,1002.696,1237.693,980.88,1232.487,984.687
	 M832.602,995.706c0.846,2.698,3.383,6.824,6.71,5.349c2.823-1.063,2.446-4.344,2.663-6.755
	C838.785,994.311,835.665,994.928,832.602,995.706 M887.868,997.935c0.023,2.149,0.08,4.321,0.171,6.493
	c6.653-1.315,13.271-2.903,20.015-3.784c-0.046-1.726-0.103-3.452-0.126-5.167C901.116,994.151,894.566,997.134,887.868,997.935
	 M1245.849,1050.629c-5.929,12.975-8.177,30.33,5.99,32.097c5.704,0.823,10.962,4.069,16.826,3.658
	c0.428-7.977,5.536-23.022-11.053-35.675C1254.216,1048.583,1249.152,1048.595,1245.849,1050.629 M1249.964,1084.704
	c1.086,6.687,1.395,13.454,2.423,20.152c3.486-1.577,6.675,0.674,9.922,1.737c1.447-16.364,0.611-3.832,5.132-16.506
	C1261.794,1087.733,1255.976,1085.767,1249.964,1084.704 M1212.677,1097.54c-7.178,20.942-2.023,36.188,6.47,29.422
	c5.098,4.526,11.442-0.617,15.523-4.035c1.362-4.416,2.302-18.885-1.726-21.181c-2.983-2.057-5.921-4.344-9.293-5.681
	C1219.982,1096.488,1216.37,1097.334,1212.677,1097.54 M1288.496,1097.174c-1.726,3.749-4.344,7.087-5.292,11.168
	c-0.72,3.886-5.738,6.218-3.818,10.608c4.492,1.932,8.767,4.332,13.031,6.744c2.606-4.713,3.008-23.345,1.84-26.964
	C1292.634,1097.391,1290.439,1097.471,1288.496,1097.174 M1271.373,1128.78c-2.023,1.497-4.446,2.297-6.733,3.292
	c-0.8,2.88-1.955,5.807-4.515,7.59c11.621,26.672,9.157,9.284,20.724,21.386c2.023-2.183,4.389-4.001,6.378-6.207
	c1.865-4.142,6.292-22.843,4.675-26.279c-4.138-2.949-8.71-5.487-13.431-7.361
	C1274.151,1120.813,1273.042,1125.842,1271.373,1128.78 M1247.552,1145.377c4.915,1.989,9.636,4.629,14.883,5.715
	c-1.223-4.023-3.04-7.83-4.675-11.682C1254.41,1141.502,1250.855,1143.228,1247.552,1145.377 M309.85,1146.68
	c0.023,3.006,0.823,6.081-0.297,9.03c-2.092,6.07,0.446,12.299,1.063,18.392c-0.56-0.16-1.703-0.491-2.263-0.663
	c-2.058-6.15-0.926-12.951-3.086-19.146c-1.646,0.64-3.932,0.789-4.584,2.778c-0.533,5.439,2.243,38.596-0.091,54.592
	c-0.514,4.904,1.12,9.693,1.154,14.608c1.166-0.068,2.332-0.114,3.498-0.16c0.103-2.698,0.343-5.395,0.846-8.024
	c4.309,6.115-0.857,13.534,0.149,20.289c1.406,1.017,2.846,2.012,4.275,3.04c0.183,2.915,0.514,5.829,1.074,8.71
	c-1.406,1.338-3.178,2.606-3.406,4.721c-1.017,5.212-2.903,10.505-2.023,15.877c1.966,11.213-0.777,22.587,0.16,33.834
	c1.086,0.4,1.977,0.149,2.686-0.777c5.601-5.555,12.208-10.093,17.214-16.231c0.983-5.795-4.401-9.796-6.755-14.482
	c3.852,1.257,5.761,5.624,10.059,5.99c1.92-7.156,4.595-14.06,6.904-21.089c1.074-0.286,2.16-0.56,3.246-0.823
	c-0.914-3.703-0.594-7.498-0.114-11.225c0.686-0.057,2.046-0.194,2.72-0.252c0.64,1.577,1.28,3.166,1.932,4.778
	c9.537-4.606,15.716-4.074,19.295-11.396c1.795-0.149,3.578-0.297,5.384-0.411c0.124-5.844-7.597-25.006-9.876-30.359
	c-1.246-0.068-2.503-0.114-3.749-0.137c-11.407,35.104-8.457,28.477-12.402,31.537c1.577-8.184,10.957-36.384,13.499-41.755
	c-7.004-9.441-13.807-31.873-23.775-37.115c-0.88,1.36-1.715,2.755-2.572,4.149c-0.869-3.326-1.36-6.71-1.966-10.07
	c-2.755-5.338-6.938-9.967-12.174-12.951C312.936,1141.01,311.05,1144.542,309.85,1146.68 M1067.213,1146.806
	c0.114,1.714-0.217,3.681,1.143,5.041c2.527,3.087,8.549,22.086,17.066,20.758c6.31,0.994,11.728-2.949,15.98-7.11
	c-0.172-1.749-2.069-2.378-3.212-3.338c-4.184-2.663-7.521-6.675-12.345-8.241c-5.315-1.703-7.601-7.921-13.008-9.35
	C1070.791,1144.817,1069.053,1146.028,1067.213,1146.806 M1180.752,1145.571c-2.183,1.692-2.229,5.132-4.447,6.927
	c-2.458,2.16-6.104,1.177-8.801,2.663c-1.109,1.772-2.355,3.646-2.595,5.772c2.16,5.075,6.435,9.053,7.921,14.471
	c0.686,2.766,2.743,4.824,4.595,6.904c0.319,0.331,11.371,20.246,12.185,21.947c0.777,0.046,2.343,0.137,3.12,0.183
	c0.885-6.701,6.529-47.505,7.933-54.364C1191.434,1144.791,1191.738,1144.356,1180.752,1145.571 M1229.469,1150.235
	c-4.332-0.526-8.481,0.892-12.573,2.092c13.386,24.872,32.206,41.31,33.548,50.843c1.669-0.389,3.338-0.846,5.041-1.166
	c1.349,0.857,2.526,3.178,4.401,2.035c4.546-2.381,10.342-1.456,15.763-17.763c-0.789-10.516-6.298-19.615-10.127-29.193
	c-1.315-3.486-5.338-4.149-8.39-5.361c-4.058-1.28-7.613-3.738-11.648-4.984C1240.054,1147.446,1234.807,1149.195,1229.469,1150.235
	 M1203.636,1149.743c-0.411,5.292-0.766,10.745-3.098,15.625c-2.72,5.475-2.389,11.682-3.429,17.569
	c-1.489,17.354-6.459,25.133-2.732,29.365c3.326,5.772,8.664,10.516,9.956,17.294c1.783,1.04,3.349,2.366,4.161,4.344
	c6.115,0.011,12.254,0.457,18.369,0.137c2.446-1.555,4.172-4.149,7.087-4.995c-0.217-7.11-0.892-14.357-3.475-21.032
	c-3.577-10.08-17.293-52.182-19.306-56.044C1208.803,1150.829,1206.151,1150.418,1203.636,1149.743 M1271.739,1157.459
	c-2.435,5.738,2.846,10.665,3.807,16.151c2.034-0.594,4.115-1.086,6.241-1.429c0.8-2.149,1.726-4.252,2.675-6.333
	C1279.775,1163.711,1276.14,1160.031,1271.739,1157.459 M1217.878,1161.939c0.834,5.171,16.355,48.534,18.735,54.009
	c0.755,0,2.263,0,3.018,0c2.658-8.652-3.989-11.683,4.104-12.482c0.503,2.72,2.72,3.521,5.235,3.623
	c-0.011-2.64-0.149-5.407-2-7.464C1219.501,1163.137,1222.854,1164.147,1217.878,1161.939 M1103.139,1165.563
	c0.114,9.156-0.8,18.3-1.063,27.468c0.96,0.069,2.892,0.206,3.864,0.274c0.091,1.349,0.194,2.709,0.309,4.092
	c0.709,0.149,2.126,0.446,2.823,0.594c1.978,4.755,5.738,8.436,7.761,13.179c14.564,0.588,13.049,0.657,15.786-2.572
	c3.235-11.145,4.995-22.689,8.63-33.72C1132.256,1173.064,1136.922,1178.56,1103.139,1165.563 M1154.588,1175.953
	c0.823,12.585,0.48,25.204,1.097,37.801c0.526,5.372-1.017,10.573-1.635,15.866c2.16,0.034,4.321,0.068,6.492,0.149
	c1.04,2.343,2.115,4.687,3.121,7.075c3.075-0.32,5.372-3.063,8.596-2.629c5.67,0.103,11.328-0.046,16.997-0.343
	c1.074-2.926,1.566-6.172,0.446-9.156c-1.703-4.778,1.395-9.522,1.166-14.323c-0.984-4.578-12.153-19.317-25.856-42.476
	C1161.32,1170.101,1153.582,1170.147,1154.588,1175.953 M1143.089,1174.022c-12.013,53.128-8.296,24.761-6.344,39.858
	c0.469,4.744,3.395,8.767,4.001,13.499c3.955,0.011,7.921-0.023,11.899-0.046c1.628-6.309-0.967-42.409-0.697-54.215
	C1148.987,1173.439,1146.038,1173.77,1143.089,1174.022 M638.511,1186.344c5.247,2.023,10.619,3.783,16.026,5.361
	c2.652-0.48,5.132-1.612,7.67-2.492c1.097-2.069-1.612-2.378-2.8-3.292c-4.161-1.818-4.995-6.893-8.321-9.579
	C646.033,1178.331,641.083,1181.383,638.511,1186.344 M299.528,1257.636c-1.795,2.743-2.309,6.047-3.612,9.019
	c-3.28,5.484-10.648,11.381-5.452,23.032c1.234,4.024,1.68,8.321,3.898,12.002c2.686-6.367,3.326-13.305,5.247-19.878
	c3.7-13.03,7.131-8.516,4.572-25.982C302.592,1256.31,300.911,1256.676,299.528,1257.636 M331.511,1287.298
	c-0.263,1.612-0.514,3.258-0.766,4.915c-5.426,3.541-1.568-1.434-8.721,20.986c-1.246,5.029-3.783,9.647-4.812,14.745
	c4.275-1.429,8.481-3.372,13.077-3.464c-1.383,4.081-6.355,4.218-9.785,5.509c1.692,0.915,3.555,1.28,5.475,0.995
	c2.915-0.434,5.681,1.315,8.596,0.411c-0.469-3.132-1.726-6.058-2.32-9.133c-0.986-10.403,2.501-32.064,3.235-35.332
	C334.163,1287.035,332.837,1287.149,331.511,1287.298 M300.797,1289.47c-1.463,7.373-4.949,14.528-4.766,22.095
	c2.195,2.903,6.527-0.08,6.527-3.063c0.617-6.401,0.412-12.836,0.697-19.249C302.637,1289.31,301.414,1289.424,300.797,1289.47
	 M312.125,1305.655c-2.492,2.298-6.001,4.149-6.801,7.716c0.8,4.218,3.223,7.876,4.812,11.819c1.212,0.206,2.435,0.411,3.658,0.64
	c2.743-5.098,3.601-10.87,5.452-16.289c1.475-4.618,4.024-8.927,4.389-13.842C318.8,1297.723,316.068,1302.443,312.125,1305.655
	 M322.526,1362.522c1.532,4.858,3.658,9.51,6.378,13.831c2.309-4.629,5.509-8.87,6.858-13.922
	C331.385,1361.573,326.927,1362.328,322.526,1362.522 M316.411,1364.923c-2.472,8.332-3.452,7.483,0.194,24.45
	c0.652,2.789,3.623,3.909,5.875,5.178c6.004-18.392,7.077-10.322-2.892-30.074C318.8,1364.591,317.211,1364.82,316.411,1364.923
	 M278.062,1385.692c-1.806,6.561-1.257,13.408-1.806,20.129c-0.446,3.795,1.772,7.03,2.926,10.47
	c0.926,5.395-0.114,10.996,1.2,16.357c0.335,1,7.612,17.554,7.841,31.24c1.2-0.046,2.4-0.08,3.612-0.08
	c1.875-6.835,6.138-13.019,6.081-20.323c-0.674-10.47-2.092-21.021-5.715-30.897c-7.57-42.042,1.249-13.314-11.922-38.909
	C278.45,1377.427,279.205,1381.748,278.062,1385.692 M306.135,1388.252c0,4.606-1.452,9.19-1.04,13.785
	c2.057,4.698,3.246,10.928,8.31,13.328c-0.103,2.126-0.697,4.481,0.583,6.412c2.549,4.286,4.286,9.007,7.087,13.156
	c0.217-5.944-1.669-11.682-2.24-17.546c0.114-2.218-1.989-3.041-3.475-4.092c3.841-6.173,0.549-13.202-0.56-19.649
	C313.005,1390.618,309.381,1389.19,306.135,1388.252 M292.304,1389.818c0.309,5.795,1.875,11.419,2.755,17.146
	c2.835-0.034,5.121-1.623,7.236-3.349C295.458,1387.384,296.717,1391.171,292.304,1389.818 M325.052,1393.647
	c0.48,1.246,0.594,2.858,1.84,3.703c3.681,2.972,7.727,5.567,12.208,7.178c-1.315-4.138-3.235-8.07-5.51-11.728
	C330.859,1391.704,327.83,1393.339,325.052,1393.647 M321.2,1398.243c-2.126,2.149-2.892,6.058-1.692,8.962
	c2.812,7.192,4.872,42.071,13.865,54.661c0.4-0.126,1.2-0.389,1.6-0.514c10.204-22.21,7.794-20.638,8.561-29.319
	c0.069-5.612,1.417-11.202,0.892-16.791c-2.252-7.007-10.059-9.156-15.431-13.145C326.493,1400.792,324.081,1397.957,321.2,1398.243
	 M296.008,1408.827c-0.457,5.052-0.034,10.093,1.189,15.02c0.674,0.046,2.023,0.137,2.698,0.183
	c0.183-5.624,0.709-11.225,1.017-16.837C299.265,1407.707,297.631,1408.256,296.008,1408.827 M304.146,1409.959
	c-0.32,9.956-4.527,19.352-3.795,29.365c3.041-0.651,3.281-4.104,4.481-6.412c1.646-4.366,4.538-8.413,5.109-13.088
	C308.924,1416.177,307.53,1412.016,304.146,1409.959 M307.724,1430.671c-3.338,7.739-9.339,15.34-6.778,24.29
	c-0.652,0.091-1.977,0.274-2.64,0.366c-0.652,5.864-1.155,11.739-1.897,17.603c-1.029,5.361,0.606,10.893-1.52,16.106
	c7.402,3.767,3.459-1.279,11.716,18.872c0.48,1.646,2,2.537,3.338,3.498c-1.875-15.488-5.841-30.782-6.973-46.385
	c2.538,10.802,4.138,21.935,6.698,32.783c2.275,5.007,0.617,10.562,1.772,15.786c1.337-0.8,3.075-1.269,3.509-2.949
	c2.373-5.485,7.805-21.616,10.516-24.21c-3.995,27.661-24.323,23.665,2.275,57.576c1.303,1.714,3.258,2.72,5.109,3.772
	c0.251-1.475,0.492-2.938,0.732-4.378c2.378-1.989,4.789-3.967,7.647-5.235c0.32,2.778,2.057,4.984,3.292,7.418
	c0.503,3.784,0.217,7.681,1.566,11.339c8.427,0.369,10.045-14.47,16.46-17.077c-0.64-4.869,0.091-10.116-2.412-14.54
	c-4.767-11.122-11.133-21.512-14.883-33.068c16.104,24.566,10.024,25.781,18.197,30.565c0.172-5.441,0.263-10.859,0.354-16.277
	l1.337-0.183c0.732,8.424-1.429,16.711-1.154,25.136c1.486-0.183,2.972-0.332,4.469-0.469c0.377-1.874,0.732-3.726,1.097-5.578
	c4.675-3.326,7.293-9.076,8.344-14.551c-1.783-5.567,1.074-11.11-0.16-16.711c-0.658-5.267-3.927-25.907-9.144-27.01
	c-0.082,0.833-2.046,28.291-2.046,28.291c-1.509-2.012-1.132-4.561-0.914-6.87c0.617-5.498,0.434-11.042,1.052-16.528
	c0.343-4.892,1.2-10.219-1.383-14.677c-10.979-19.604-10.698-23.263-14.734-28.188c-8.148,19.026-7.309,14.342-7.613,34.897
	c-0.411,7.533-3.132,15.648-0.08,22.907c-4.024,6.19-4.606,33.956-3.761,41.104c0.354,3.36-2.035,6.195-3.715,8.882
	c-0.08-4.938,0.88-9.785,1.326-14.654c0.225-9.185-3.302-21.254-3.189-27.605c0.857,3.326,1.074,6.79,2.046,10.093
	c0.572,0.16,1.726,0.48,2.298,0.64c1.224-22.83,3.651-19.742-1.566-31.914c-0.652-1.589-2.572-1.943-3.886-2.755
	c-1.543,3.543-1.92,7.407-0.663,11.11c-0.709,0.034-2.115,0.092-2.823,0.126c-1.132,1.337-2.309,2.652-3.601,3.864
	c0.903-3.589,2.64-6.881,3.772-10.379c-0.322-23.181-13.185-41.286-16.883-51.574
	C309.278,1424.898,308.947,1428.248,307.724,1430.671 M357.138,1433.026c0.686,5.384,4.104,9.762,6.481,14.494
	c1.269,2.595,1.383,5.841,3.703,7.841c0.08-5.201,3.338-11.934-1.372-15.957C363.31,1436.889,361.253,1433.037,357.138,1433.026
	 M372.055,1445.553c1.749,13.134,1.715,27.079,8.196,39.024c0.674-0.034,2.023-0.126,2.698-0.16
	c0.857-1.555,1.806-3.041,2.823-4.458c-1.246-2.126-1.977-4.469-1.623-6.927c1.737-0.732,3.498-1.406,5.224-2.149
	c-0.366-8.379-1.177-16.723-1.543-25.09C382.708,1448.08,377.233,1446.994,372.055,1445.553z"/>
<path class="st0" d="M1101.749,886.641c0.84-1.1,3.12-0.74,3.26,0.78C1104.879,889.67,1100.709,888.63,1101.749,886.641z"/>
<path class="st0" d="M1101.599,891.201c1.51,0.06,1.34,3.83-0.15,3.89C1100.609,894,1100.789,892.23,1101.599,891.201z"/>
<path class="st0" d="M1099.259,898.81C1102.579,898.97,1097.689,901.81,1099.259,898.81z"/>
<path class="st0" d="M1136.489,902.91c1.51,1.1,0.9,4.5,0.36,6.26C1135.369,908.02,1135.879,904.641,1136.489,902.91z"/>
<path class="st0" d="M1098.399,903.79C1098.959,904.35,1098.959,904.35,1098.399,903.79z"/>
<path class="st0" d="M1137.399,912.82C1137.949,913.38,1137.949,913.38,1137.399,912.82z"/>
<path class="st0" d="M1146.269,920.81C1149.569,920.94,1144.719,923.82,1146.269,920.81z"/>
<path class="st0" d="M378.119,1133.07c-2.95-1.36-1.87-4.27-0.08-6.1C378.159,1128.99,378.169,1131.02,378.119,1133.07z"/>
<path class="st0" d="M357.329,1139.79C357.899,1140.34,357.899,1140.34,357.329,1139.79z"/>
<path class="st0" d="M365.979,1168.7c0.02-2.41,0.29-5.03,2.27-6.68C368.239,1164.43,368.709,1167.54,365.979,1168.7z"/>
<path class="st0" d="M337.469,1339.87c1.43-0.58,1.86-0.15,1.29,1.29C337.329,1341.71,336.899,1341.28,337.469,1339.87z"/>
</svg>
