<?xml version="1.0" standalone="no"?>
<!DOCTYPE svg PUBLIC "-//W3C//DTD SVG 20010904//EN"
 "http://www.w3.org/TR/2001/REC-SVG-20010904/DTD/svg10.dtd">
<svg version="1.0" xmlns="http://www.w3.org/2000/svg"
 width="1114.000000pt" height="1114.000000pt" viewBox="0 0 1114.000000 1114.000000"
 preserveAspectRatio="xMidYMid meet">
<metadata>
Created by potrace 1.14, written by Peter Selinger 2001-2017
</metadata>
<g transform="translate(0.000000,1114.000000) scale(0.100000,-0.100000)"
fill="#000000" stroke="none">
<path d="M140 8546 c0 -2 8 -10 18 -17 15 -13 16 -12 3 4 -13 16 -21 21 -21
13z"/>
<path d="M1553 7893 c-5 -1 -33 -4 -63 -6 -82 -7 -114 -16 -128 -35 -7 -9 -15
-16 -17 -14 -14 7 -34 -1 -62 -27 -18 -16 -35 -26 -39 -22 -4 3 -4 -4 -1 -17
4 -19 3 -21 -8 -12 -10 9 -19 4 -36 -19 -12 -17 -26 -28 -31 -25 -4 3 -8 -2
-8 -10 0 -8 -6 -19 -13 -23 -21 -12 -48 -59 -40 -67 4 -4 -1 -4 -12 0 -18 7
-19 6 -5 -12 8 -10 10 -16 6 -12 -11 10 -35 -21 -36 -44 0 -10 -4 -18 -8 -18
-4 0 -8 -8 -8 -17 -1 -10 -3 -33 -7 -50 -3 -22 -1 -33 6 -33 8 0 9 -3 2 -8
-14 -9 -13 -55 0 -64 6 -5 5 -8 -4 -8 -10 0 -11 -3 -2 -13 6 -8 8 -17 4 -21
-10 -10 -10 -86 0 -86 4 0 5 -6 0 -12 -13 -21 -12 -69 1 -61 8 5 8 3 1 -8 -17
-22 -18 -71 -3 -80 7 -5 8 -9 2 -9 -7 0 -11 -168 -13 -567 -1 -313 -3 -800 -5
-1083 -1 -283 2 -528 6 -545 5 -16 11 -47 14 -68 12 -77 24 -117 36 -117 5 0
7 -4 3 -9 -3 -5 4 -25 15 -43 11 -18 23 -40 27 -48 15 -32 76 -115 83 -113 5
1 7 -5 6 -14 -2 -9 5 -26 15 -37 10 -12 27 -32 38 -45 12 -13 21 -27 21 -30 0
-3 18 -26 40 -51 22 -25 43 -49 48 -55 57 -73 76 -94 84 -89 5 3 7 0 6 -8 -2
-7 5 -12 16 -11 13 1 15 -2 7 -10 -8 -8 -4 -17 15 -34 15 -13 24 -23 21 -23
-3 0 4 -10 16 -23 12 -12 34 -38 50 -57 40 -50 88 -107 120 -142 15 -17 27
-35 27 -40 0 -6 7 -7 16 -4 8 3 12 2 9 -4 -3 -5 3 -20 14 -32 12 -12 21 -26
21 -31 0 -5 7 -6 16 -3 11 4 15 2 11 -7 -3 -7 11 -32 32 -54 20 -23 52 -61 71
-84 19 -24 45 -54 57 -67 25 -27 84 -99 96 -116 5 -8 10 -7 18 4 9 13 10 12 5
-3 -7 -21 49 -81 65 -71 5 3 9 2 8 -3 -5 -22 14 -43 35 -38 11 2 15 2 7 -1
-22 -10 68 -85 94 -78 15 4 16 3 6 -4 -9 -7 -10 -12 -2 -16 6 -4 11 -4 11 1 0
4 4 3 8 -2 16 -22 149 -71 207 -77 17 -1 35 -6 42 -11 6 -4 14 -3 18 3 5 8 11
7 22 -1 12 -10 16 -10 24 2 5 8 9 9 9 3 0 -18 193 -12 216 6 18 14 18 14 5 -2
-11 -15 -11 -18 1 -18 8 0 20 6 27 12 8 7 11 8 8 2 -7 -12 181 -13 2943 -13
2879 0 2681 -1 2786 20 102 20 177 51 245 100 49 36 186 164 229 215 14 16 59
70 100 119 90 107 112 134 165 194 22 26 85 100 140 166 55 66 103 122 107
123 5 2 8 8 8 13 0 5 8 17 18 27 9 10 37 43 62 72 25 29 54 63 65 76 11 12 27
31 35 41 8 10 26 32 40 49 14 17 34 43 45 59 11 15 28 35 38 44 9 8 17 19 17
24 0 4 24 45 54 90 77 118 108 191 120 285 3 24 8 48 11 53 6 9 6 271 0 1865
-2 682 -4 746 -20 800 -22 72 -62 133 -130 199 -96 95 -143 125 -240 156 -32
11 -823 13 -4117 14 -2243 0 -4081 -1 -4085 -2z m30 -28 c-3 -9 -8 -14 -10
-11 -3 3 -2 9 2 15 9 16 15 13 8 -4z m-196 -37 c2 -17 0 -19 -7 -8 -5 8 -6 18
-4 22 8 12 10 10 11 -14z m183 -8 c0 -5 -2 -10 -4 -10 -3 0 -8 5 -11 10 -3 6
-1 10 4 10 6 0 11 -4 11 -10z m-167 -35 c-3 -9 -8 -14 -10 -11 -3 3 -2 9 2 15
9 16 15 13 8 -4z m-53 -5 c0 -5 -4 -10 -10 -10 -5 0 -10 5 -10 10 0 6 5 10 10
10 6 0 10 -4 10 -10z m677 -5 c0 -8 -4 -12 -9 -9 -5 3 -6 10 -3 15 9 13 12 11
12 -6z m-546 -48 c-10 -9 -11 -8 -5 6 3 10 9 15 12 12 3 -3 0 -11 -7 -18z
m134 13 c3 -6 -1 -7 -9 -4 -18 7 -21 14 -7 14 6 0 13 -4 16 -10z m-251 -78 c3
-5 -1 -9 -9 -9 -8 0 -12 4 -9 9 3 4 7 8 9 8 2 0 6 -4 9 -8z m-83 -55 c-10 -9
-11 -8 -5 6 3 10 9 15 12 12 3 -3 0 -11 -7 -18z m309 17 c0 -8 -19 -13 -24 -6
-3 5 1 9 9 9 8 0 15 -2 15 -3z m-250 -200 c0 -8 -19 -13 -24 -6 -3 5 1 9 9 9
8 0 15 -2 15 -3z m-210 -78 c0 -3 -4 -8 -10 -11 -5 -3 -10 -1 -10 4 0 6 5 11
10 11 6 0 10 -2 10 -4z m120 0 c0 -3 -4 -8 -10 -11 -5 -3 -10 -1 -10 4 0 6 5
11 10 11 6 0 10 -2 10 -4z m-66 -44 c3 -5 -1 -9 -9 -9 -8 0 -12 4 -9 9 3 4 7
8 9 8 2 0 6 -4 9 -8z m561 -2 c3 -5 1 -10 -4 -10 -6 0 -11 5 -11 10 0 6 2 10
4 10 3 0 8 -4 11 -10z m-620 -79 c3 -5 2 -12 -3 -15 -5 -3 -9 1 -9 9 0 17 3
19 12 6z m196 -8 c13 -16 12 -17 -3 -4 -10 7 -18 15 -18 17 0 8 8 3 21 -13z
m-101 -149 c0 -8 -19 -13 -24 -6 -3 5 1 9 9 9 8 0 15 -2 15 -3z m27 -39 c0 -8
-4 -12 -9 -9 -5 3 -6 10 -3 15 9 13 12 11 12 -6z m438 -2994 c3 -5 2 -12 -3
-15 -5 -3 -9 1 -9 9 0 17 3 19 12 6z m962 -86 c0 -8 -4 -12 -9 -9 -5 3 -6 10
-3 15 9 13 12 11 12 -6z m-502 -493 c-3 -3 -11 0 -18 7 -9 10 -8 11 6 5 10 -3
15 -9 12 -12z m222 -107 c0 -8 -4 -12 -9 -9 -5 3 -6 10 -3 15 9 13 12 11 12
-6z m478 6 c3 -5 2 -12 -3 -15 -5 -3 -9 1 -9 9 0 17 3 19 12 6z m-615 -5 c0
-2 -7 -7 -16 -10 -8 -3 -12 -2 -9 4 6 10 25 14 25 6z m45 -6 c-3 -5 -12 -10
-18 -10 -7 0 -6 4 3 10 19 12 23 12 15 0z m90 -80 c3 -5 1 -10 -4 -10 -6 0
-11 5 -11 10 0 6 2 10 4 10 3 0 8 -4 11 -10z m560 -48 c-3 -3 -11 0 -18 7 -9
10 -8 11 6 5 10 -3 15 -9 12 -12z m-197 -37 c-3 -3 -9 2 -12 12 -6 14 -5 15 5
6 7 -7 10 -15 7 -18z m-258 9 c0 -8 -19 -13 -24 -6 -3 5 1 9 9 9 8 0 15 -2 15
-3z"/>
</g>
</svg>
